<svg width="26" height="21" viewBox="0 0 26 21" fill="none" xmlns="http://www.w3.org/2000/svg">
<path d="M24.3537 7.43792C22.8439 9.04022 20.3209 9.11503 18.7184 7.60501C17.1158 6.095 17.0407 3.57197 18.5505 1.96967C20.0603 0.367375 22.5833 0.292564 24.1858 1.80258C25.7884 3.31259 25.8635 5.83562 24.3537 7.43792ZM19.9539 3.29211C19.1744 4.11941 19.2132 5.4221 20.0406 6.20176C20.868 6.98141 22.1707 6.94278 22.9503 6.11548C23.7298 5.28818 23.691 3.98549 22.8636 3.20584C22.0362 2.42618 20.7335 2.46481 19.9539 3.29211Z" fill="white"/>
<path d="M9.04186 20.1384C6.32747 21.763 2.80968 20.8794 1.18464 18.1648C-0.440395 15.4503 0.442695 11.9326 3.15708 10.308C5.87146 8.68334 9.38926 9.56693 11.0143 12.2815C12.6393 14.9961 11.7562 18.5138 9.04186 20.1384ZM4.11489 11.908C2.28409 13.0038 1.68847 15.3763 2.78452 17.2073C3.88057 19.0382 6.25325 19.6342 8.08405 18.5384C9.91484 17.4426 10.5105 15.07 9.41442 13.2391C8.31836 11.4082 5.94568 10.8122 4.11489 11.908Z" fill="white"/>
<path d="M7.25913 17.2357C6.17705 17.8834 4.77468 17.5311 4.12686 16.449C3.47904 15.3668 3.83109 13.9645 4.91317 13.3168C5.99526 12.6692 7.39762 13.0214 8.04544 14.1036C8.69326 15.1858 8.34122 16.5881 7.25913 17.2357Z" fill="white"/>
<path d="M19.3619 1.51117L20.2764 3.03887L6.46173 11.3073L5.5472 9.77963L19.3619 1.51117Z" fill="white"/>
<path d="M22.4088 7.04101L23.2412 8.06033L10.2313 18.6842L9.39884 17.6648L22.4088 7.04101Z" fill="white"/>
</svg>
