<svg width="193" height="229" viewBox="0 0 193 229" fill="none" xmlns="http://www.w3.org/2000/svg">
<rect width="192.803" height="229" rx="20" fill="white"/>
<rect x="16.2516" y="48.0161" width="124.842" height="10.3419" rx="2" fill="#565656"/>
<rect x="16.2516" y="75.3484" width="124.842" height="10.3419" rx="2" fill="#565656"/>
<rect x="16.2516" y="102.681" width="124.842" height="10.3419" rx="2" fill="#565656"/>
<rect x="16.2516" y="130.013" width="124.842" height="10.3419" rx="2" fill="#565656"/>
<rect x="51.7097" y="193.542" width="124.842" height="10.3419" rx="2" fill="#565656"/>
<rect x="83.4742" y="166.21" width="93.0774" height="5.17097" rx="2" fill="#565656"/>
<rect x="83.4742" y="179.506" width="93.0774" height="5.17097" rx="2" fill="#565656"/>
<mask id="path-9-inside-1_2534_11644" fill="white">
<rect x="154.39" y="42.1064" width="22.1613" height="22.1613" rx="4"/>
</mask>
<rect x="154.39" y="42.1064" width="22.1613" height="22.1613" rx="4" stroke="#565656" stroke-width="12" mask="url(#path-9-inside-1_2534_11644)"/>
<mask id="path-10-inside-2_2534_11644" fill="white">
<rect x="154.39" y="69.4387" width="22.1613" height="22.1613" rx="4"/>
</mask>
<rect x="154.39" y="69.4387" width="22.1613" height="22.1613" rx="4" stroke="#565656" stroke-width="12" mask="url(#path-10-inside-2_2534_11644)"/>
<mask id="path-11-inside-3_2534_11644" fill="white">
<rect x="154.39" y="96.771" width="22.1613" height="22.1613" rx="4"/>
</mask>
<rect x="154.39" y="96.771" width="22.1613" height="22.1613" rx="4" stroke="#565656" stroke-width="12" mask="url(#path-11-inside-3_2534_11644)"/>
<mask id="path-12-inside-4_2534_11644" fill="white">
<rect x="154.39" y="124.103" width="22.1613" height="22.1613" rx="4"/>
</mask>
<rect x="154.39" y="124.103" width="22.1613" height="22.1613" rx="4" stroke="#565656" stroke-width="12" mask="url(#path-12-inside-4_2534_11644)"/>
<path d="M17.1719 35V20.9082H22.9922C26.1562 20.9082 28.0312 22.5879 28.0312 25.4199V25.4395C28.0312 27.2949 27.0449 28.8379 25.4824 29.4531L28.4512 35H25.1113L22.4844 29.8926H20.1211V35H17.1719ZM20.1211 27.6562H22.6699C24.1348 27.6562 25.0137 26.8262 25.0137 25.4395V25.4199C25.0137 24.0723 24.0859 23.2129 22.6309 23.2129H20.1211V27.6562ZM34.7822 35.2148C31.5791 35.2148 29.6357 33.1348 29.6357 29.7852V29.7754C29.6357 26.4453 31.5986 24.3164 34.665 24.3164C37.7314 24.3164 39.6552 26.3965 39.6552 29.5605V30.4395H32.4482C32.4775 32.1094 33.3857 33.0859 34.8408 33.0859C36.0127 33.0859 36.7256 32.4414 36.9306 31.8555L36.9502 31.7969H39.5674L39.5381 31.9043C39.2158 33.4473 37.7705 35.2148 34.7822 35.2148ZM34.7138 26.4453C33.542 26.4453 32.6631 27.2266 32.4775 28.6426H36.9209C36.7451 27.1973 35.8955 26.4453 34.7138 26.4453ZM45.8105 35.2148C42.9101 35.2148 41.2988 33.877 41.0742 31.8945L41.0644 31.8066H43.8476L43.8671 31.8945C44.0527 32.7148 44.6679 33.1934 45.8105 33.1934C46.8847 33.1934 47.539 32.7734 47.539 32.0996V32.0898C47.539 31.5332 47.1875 31.2109 46.1621 30.9863L44.3847 30.6152C42.3535 30.1855 41.3281 29.1699 41.3281 27.6074V27.5977C41.3281 25.6055 43.0468 24.3164 45.7128 24.3164C48.496 24.3164 50.0488 25.791 50.1171 27.627V27.7246H47.4902L47.4804 27.6465C47.3828 26.8945 46.7675 26.3281 45.7128 26.3281C44.7265 26.3281 44.1113 26.7676 44.1113 27.4414V27.4512C44.1113 27.9883 44.4726 28.3398 45.5273 28.5645L47.3046 28.9453C49.4921 29.4043 50.3906 30.2637 50.3906 31.8066V31.8164C50.3906 33.8672 48.5058 35.2148 45.8105 35.2148ZM53.6552 23.1836C52.7958 23.1836 52.1318 22.5098 52.1318 21.6992C52.1318 20.8887 52.7958 20.2148 53.6552 20.2148C54.5146 20.2148 55.1786 20.8887 55.1786 21.6992C55.1786 22.5098 54.5146 23.1836 53.6552 23.1836ZM52.2294 35V24.5312H55.081V35H52.2294ZM61.952 35V20.9082H65.3602L69.3641 31.0352H69.4227L73.4266 20.9082H76.8348V35H74.2079V25.4688H74.12L70.3212 35H68.4657L64.6571 25.4688H64.579V35H61.952ZM84.1131 35.2148C80.9295 35.2148 78.9276 33.1738 78.9276 29.7656V29.7461C78.9276 26.377 80.9784 24.3164 84.1034 24.3164C87.2381 24.3164 89.2987 26.3574 89.2987 29.7461V29.7656C89.2987 33.1836 87.2772 35.2148 84.1131 35.2148ZM84.1229 32.9785C85.5096 32.9785 86.3983 31.8066 86.3983 29.7656V29.7461C86.3983 27.7246 85.4901 26.5527 84.1034 26.5527C82.7264 26.5527 81.828 27.7246 81.828 29.7461V29.7656C81.828 31.8164 82.7167 32.9785 84.1229 32.9785ZM95.3075 35.2148C92.9832 35.2148 91.8895 34.3164 91.8895 32.0703V26.6797H90.4344V24.5312H91.8895V21.9727H94.7703V24.5312H96.6844V26.6797H94.7703V31.7578C94.7703 32.7344 95.2098 33.0664 96.0692 33.0664C96.3231 33.0664 96.5086 33.0371 96.6844 33.0176V35.1074C96.3621 35.1562 95.9032 35.2148 95.3075 35.2148ZM103.279 35.2148C100.096 35.2148 98.0936 33.1738 98.0936 29.7656V29.7461C98.0936 26.377 100.144 24.3164 103.269 24.3164C106.404 24.3164 108.465 26.3574 108.465 29.7461V29.7656C108.465 33.1836 106.443 35.2148 103.279 35.2148ZM103.289 32.9785C104.676 32.9785 105.564 31.8066 105.564 29.7656V29.7461C105.564 27.7246 104.656 26.5527 103.269 26.5527C101.892 26.5527 100.994 27.7246 100.994 29.7461V29.7656C100.994 31.8164 101.883 32.9785 103.289 32.9785ZM110.313 35V24.5312H113.165V26.3574H113.223C113.536 25.0684 114.386 24.3164 115.606 24.3164C115.919 24.3164 116.212 24.3652 116.427 24.4238V26.9336C116.192 26.8359 115.802 26.7773 115.391 26.7773C113.985 26.7773 113.165 27.6172 113.165 29.1406V35H110.313Z" fill="#565656"/>
</svg>
