<svg width="380" height="325" viewBox="0 0 380 325" fill="none" xmlns="http://www.w3.org/2000/svg">
<g filter="url(#filter0_d_2554_15609)">
<path d="M291.289 152.155C287.229 157.196 279.192 167.654 279.528 169.166C279.947 171.052 239.821 232.92 241.087 235.302C241.216 235.488 241.227 235.504 241.097 235.318C241.093 235.313 241.09 235.308 241.087 235.302C240.048 233.807 231.339 221.315 226.606 214.528L242.357 166.856L265.458 145.225L291.289 152.155Z" fill="black"/>
<path d="M235.007 68.1524C234.839 68.3204 234.797 70.4625 234.797 71.5125H236.057V68.1524C237.597 66.6124 240.677 63.7422 240.677 64.5823C240.677 65.6323 245.507 65.2123 246.137 65.2123C246.641 65.2123 249.007 60.5921 250.127 58.2821L250.547 52.4018L249.077 51.3518L241.937 51.7718L240.047 58.2821V63.5322C238.437 65.0023 235.175 67.9844 235.007 68.1524Z" fill="#1C1C1C"/>
<path d="M199.848 70.2526H198.651C198.089 70.2526 197.637 70.7157 197.651 71.2776L197.835 78.6529H201.406L200.845 71.1778C200.806 70.656 200.371 70.2526 199.848 70.2526Z" fill="black"/>
<path d="M192.585 78.8629C191.913 78.6949 190.205 80.3329 189.435 81.173L190.485 87.8932L190.905 91.4633C193.565 91.8133 199.011 92.3874 199.515 91.8833C200.019 91.3793 208.966 95.3135 213.376 97.3435L224.296 95.0335C224.576 92.7234 224.8 87.7252 223.456 86.2131C222.112 84.7011 215.196 81.383 211.906 79.9129C211.906 78.5665 210.739 77.517 209.4 77.6594L202.036 78.4429C199.165 78.6529 193.257 79.0309 192.585 78.8629Z" fill="#979797"/>
<path d="M229.757 79.4929C229.085 79.3249 225.276 83.903 223.456 86.2131L226.816 88.9432L238.787 84.3231C238.227 82.923 236.687 79.9129 235.007 79.0729C232.907 78.0228 230.597 79.7029 229.757 79.4929Z" fill="#979797"/>
<path d="M190.485 81.5929L174.315 82.4329C170.114 86.2971 173.125 88.2431 175.155 88.7332C179.495 88.3131 188.637 87.3471 190.485 86.8431C192.333 86.3391 191.535 81.8029 190.485 81.5929Z" fill="#161616"/>
<ellipse cx="100.392" cy="210.958" rx="38.0114" ry="43.2615" fill="#1C1C1C"/>
<ellipse cx="97.0318" cy="212.008" rx="26.671" ry="28.351" fill="#8D8D8D"/>
<circle cx="96.4018" cy="215.158" r="8.4003" fill="#D9D9D9"/>
<path d="M54.8203 164.966C50.6202 164.798 48.8701 163.356 48.5201 162.656H46V176.726C46 179.456 79.3912 214.738 82.3313 217.888C85.2714 221.038 95.5618 221.038 100.392 221.038C104.256 221.038 106.622 218.938 107.322 217.888L103.962 204.867L90.9416 191.217L68.8908 170.216C65.9507 168.536 59.0205 165.134 54.8203 164.966Z" fill="#6E6E6E"/>
<path d="M248.366 119.258L241.498 133.149L258.896 146.689L286.459 152.996L284.779 145.015L282.955 136.405L273.916 127.131L256.848 117.084L248.366 119.258Z" fill="white"/>
<path d="M130.213 183.447C126.349 181.431 125.383 178.686 125.383 177.566C149.604 183.657 198.213 197.139 198.885 202.347C199.557 207.555 209.666 209.978 214.636 210.538C215.336 207.457 217.03 200.205 218.206 195.837C219.676 190.377 222.406 206.127 225.976 206.127C228.833 206.127 238.997 224.258 244.037 234.058C239.417 234.478 226.522 238.217 224.506 239.729C222.49 241.241 207 243.144 195.105 239.729C180.965 235.668 161.5 231 151.5 226C149.246 224.873 146.016 222 142.5 218.5C134.5 210.538 135.97 203.607 134.5 202.347C133.03 201.087 136.723 198.777 137.773 195.837C138.823 192.897 140.293 192.897 140.293 191.007C140.293 189.117 135.043 185.967 130.213 183.447Z" fill="#2D2D31"/>
<circle cx="287.509" cy="232.378" r="46.6217" fill="#1C1C1C"/>
<circle cx="284.989" cy="231.538" r="28.141" fill="#8D8D8D"/>
<path d="M83.3814 146.275L80.2312 139.135L104.802 153.836L98.9219 155.096L90.1016 165.596L76.6611 178.196L68.4708 170.636C70.7109 166.996 75.4851 159.716 76.6611 159.716C77.8372 159.716 81.6313 150.755 83.3814 146.275Z" fill="#191919"/>
<path d="M288.349 130.525L292.549 137.875L291.499 152.995L285.779 152.995L283.099 143.965L281.629 136.825L284.099 128.845L288.349 130.525Z" fill="#424242"/>
<path d="M292.222 126.745L297.169 138.715L297.169 144.529L290.399 153.835L290.399 144.529L290.399 138.715L288.719 129.685L292.222 126.745Z" fill="white"/>
<path d="M249.707 163.1L256.826 160.556L272.377 204.062L265.878 202.137L249.707 163.1Z" fill="#3D3D3D"/>
<rect x="260.628" y="150.842" width="6.07991" height="37.155" transform="rotate(-19.6684 260.628 150.842)" fill="#3D3D3D"/>
<path d="M285.199 177.356L264.408 175.886V182.817C264.408 181.977 260.908 181.627 259.158 181.557C258.738 182.187 257.688 183.825 256.848 185.337C256.008 186.849 267.418 205.147 273.228 214.108C276.238 214.668 282.006 215.704 280.998 215.368C279.99 215.032 279.178 199.547 278.898 191.847C279.738 188.697 283.098 187.017 286.669 187.017C290.425 187.017 319.85 200.667 321.32 196.257C322.79 191.847 302.209 172.946 299.899 171.686C298.051 170.678 289.329 175.046 285.199 177.356Z" fill="#D3D3D3"/>
<path d="M204.766 99.3303L245.21 84.9246L267.138 148.795L255.588 155.516L241.937 146.905L231.647 136.615L204.766 99.3303Z" fill="#D3D3D3"/>
<path d="M75.821 116.874C75.989 118.722 85.2714 125.065 89.8915 128.005H97.0318L94.3017 124.434L84.2213 116.874L94.3017 113.934C89.9615 113.514 80.7772 112.59 78.7611 112.254C76.2411 111.834 75.611 114.564 75.821 116.874Z" fill="#292929"/>
<path d="M217.366 89.1532L257.81 74.7475L292.759 133.045L291.919 137.455L280.368 135.775L217.366 89.1532Z" fill="#2A2A2A"/>
<path d="M228.497 72.7726L260.838 65.6325L293.809 122.964L291.289 128.635L279.318 128.005L228.497 72.7726Z" fill="#BDBDBD"/>
<path d="M183.555 166.856L164.234 160.766V165.176L142.393 181.136C144.284 182.047 148.358 186.345 149.534 196.257C151.004 208.647 175.575 214.318 186.705 214.738C197.835 215.158 170.954 185.127 175.575 183.867C179.271 182.859 182.435 172.106 183.555 166.856Z" fill="#2D2D31"/>
<path d="M225.136 125.064L265.248 148.795L245.297 177.986L229.127 213.268L220.516 203.187L213.796 187.857L215.686 168.956L225.136 125.064Z" fill="#D3D3D3"/>
<path d="M144.494 118.344L94.5117 113.304L90.7316 114.774L86.9515 118.344C88.2115 120.444 89.8916 138.421 89.8916 133.045C89.8916 126.325 158.144 162.026 158.144 165.386C158.144 168.074 176.765 166.016 183.765 167.486C187.615 169.166 196.491 169.418 201.196 165.386C205.9 161.354 192.585 136.615 183.765 129.685C179.145 127.375 168.518 126.871 165.494 128.215C162.47 129.559 150.234 122.194 144.494 118.344Z" fill="#191919"/>
<path d="M82.3313 140.605C78.9712 139.093 73.931 128.215 71.8309 122.964C72.2509 122.054 73.553 120.318 75.4011 120.654C77.7111 121.074 80.0212 121.494 79.6012 122.964C79.2652 124.141 85.0614 126.675 88.0015 127.795C90.3116 127.725 95.2258 127.291 96.4018 126.115C97.5779 124.939 141.833 149.705 163.814 162.236V167.066L145.754 183.867C137.703 182.747 118.537 176.642 125.593 175.466C134.413 173.996 86.5315 142.495 82.3313 140.605Z" fill="#D3D3D3"/>
<path d="M199.441 164.756L182.87 166.445C182.87 172.569 176.656 182.494 173.894 183.972C171.133 185.45 185.474 212.418 187.545 214.108C189.616 215.797 202.663 211.634 201.282 211.423C199.901 211.212 197.829 196.008 197.829 190.518C197.829 185.028 201.052 172.78 201.282 170.035C201.466 167.839 200.131 165.601 199.441 164.756Z" fill="#1A1A1A"/>
<circle cx="186.285" cy="89.5732" r="1.68006" fill="#D9D9D9"/>
<path d="M206.866 87.8931C206.362 87.3891 194.125 88.3131 187.755 88.9431C187.615 89.2932 187.293 89.6572 187.125 88.3131C186.984 87.1872 196.905 86.523 204.367 86.1725C206.564 86.0693 208.416 87.776 208.516 89.9726L208.546 90.6232H206.866C207.146 89.8532 207.37 88.3971 206.866 87.8931Z" fill="#D9D9D9"/>
<path d="M198.255 67.1024C198.591 67.2704 198.535 69.4125 198.465 70.4625L199.515 70.8826C199.585 69.6225 199.683 67.0184 199.515 66.6824C199.305 66.2624 187.965 58.0721 188.175 57.8621C188.385 57.6521 187.965 56.182 187.965 55.342C187.965 54.502 183.555 47.3617 183.135 46.7317C182.715 46.1016 168.224 45.6816 167.594 46.3117C166.964 46.9417 168.224 52.8219 168.644 54.2919C169.064 55.762 177.255 61.6422 178.515 62.4822C179.775 63.3223 187.755 59.7522 187.965 59.3321C188.175 58.9121 197.835 66.8924 198.255 67.1024Z" fill="#1C1C1C"/>
<circle cx="283.729" cy="231.958" r="8.4003" fill="#D9D9D9"/>
</g>
<defs>
<filter id="filter0_d_2554_15609" x="0.700001" y="0.700001" width="378.73" height="323.6" filterUnits="userSpaceOnUse" color-interpolation-filters="sRGB">
<feFlood flood-opacity="0" result="BackgroundImageFix"/>
<feColorMatrix in="SourceAlpha" type="matrix" values="0 0 0 0 0 0 0 0 0 0 0 0 0 0 0 0 0 0 127 0" result="hardAlpha"/>
<feOffset/>
<feGaussianBlur stdDeviation="22.65"/>
<feComposite in2="hardAlpha" operator="out"/>
<feColorMatrix type="matrix" values="0 0 0 0 1 0 0 0 0 1 0 0 0 0 1 0 0 0 0.36 0"/>
<feBlend mode="normal" in2="BackgroundImageFix" result="effect1_dropShadow_2554_15609"/>
<feBlend mode="normal" in="SourceGraphic" in2="effect1_dropShadow_2554_15609" result="shape"/>
</filter>
</defs>
</svg>
