<svg width="325" height="170" viewBox="0 0 325 170" fill="none" xmlns="http://www.w3.org/2000/svg">
<rect width="16.421" height="56.294" transform="matrix(0.059238 -0.998244 -0.998244 -0.059238 309.831 83.3732)" fill="#6C6C6C"/>
<rect width="22.519" height="9.16676" rx="4.58338" transform="matrix(0.059238 -0.998244 -0.998244 -0.059238 314.629 86.8884)" fill="#353535"/>
<rect x="293.882" y="9.82751" width="1.99505" height="54.1554" transform="rotate(57.4854 293.882 9.82751)" fill="#5C5C5C"/>
<rect x="247.863" y="37.968" width="5.10816" height="35.2337" rx="2.55408" transform="rotate(11.4038 247.863 37.968)" fill="#272727"/>
<path d="M292.56 1.15173C294.459 -0.138102 296.911 -0.359785 299.064 0.563657L320.434 9.72873C325.421 11.8677 326.192 18.5923 321.793 21.5799L302.942 34.3813C301.043 35.6711 298.591 35.8928 296.438 34.9694L275.068 25.8043C270.081 23.6654 269.309 16.9407 273.709 13.9532L292.56 1.15173Z" fill="#D9D9D9"/>
<path d="M292.554 2.37458C294.453 1.08475 296.905 0.863062 299.059 1.7865L317.961 9.89351C322.949 12.0324 323.72 18.7571 319.32 21.7447L302.646 33.0682C300.747 34.358 298.295 34.5797 296.141 33.6563L277.239 25.5493C272.251 23.4104 271.48 16.6857 275.88 13.6981L292.554 2.37458Z" fill="#E0F9FF"/>
<path d="M261.885 88.0964C265.017 85.6437 265.872 81.2614 263.889 77.8116L256.765 65.4138C254.746 61.8995 250.418 60.4507 246.69 62.0413L231.368 68.5783C226.705 70.5677 225.045 76.3367 227.937 80.5002L238.48 95.6797C241.103 99.4562 246.362 100.25 249.982 97.4152L261.885 88.0964Z" fill="#D9D9D9"/>
<rect x="14.8474" y="83.3732" width="16.421" height="56.294" transform="rotate(-93.3961 14.8474 83.3732)" fill="#6C6C6C"/>
<rect x="10.05" y="86.8884" width="22.519" height="9.16676" rx="4.58338" transform="rotate(-93.3961 10.05 86.8884)" fill="#353535"/>
<rect width="1.99505" height="54.1554" transform="matrix(-0.537514 0.843255 0.843255 0.537514 30.7961 9.82751)" fill="#5C5C5C"/>
<rect width="5.10816" height="35.2337" rx="2.55408" transform="matrix(-0.980258 0.197723 0.197723 0.980258 76.8167 37.968)" fill="#272727"/>
<path d="M32.1191 1.15173C30.2197 -0.138102 27.7678 -0.359785 25.6146 0.563657L4.24469 9.72873C-0.742569 11.8677 -1.51377 18.5923 2.88557 21.5799L21.7363 34.3813C23.6356 35.6711 26.0876 35.8928 28.2408 34.9694L49.6107 25.8043C54.5979 23.6654 55.3691 16.9407 50.9698 13.9532L32.1191 1.15173Z" fill="#D9D9D9"/>
<path d="M32.1246 2.37458C30.2252 1.08475 27.7733 0.863062 25.6201 1.7865L6.71727 9.89351C1.73001 12.0324 0.958807 18.7571 5.35815 21.7447L22.0326 33.0682C23.932 34.358 26.384 34.5797 28.5371 33.6563L47.4399 25.5493C52.4272 23.4104 53.1984 16.6857 48.7991 13.6981L32.1246 2.37458Z" fill="#E0F9FF"/>
<path d="M62.7941 88.0964C59.6613 85.6437 58.8071 81.2614 60.7894 77.8116L67.9133 65.4138C69.9326 61.8995 74.2611 60.4507 77.9891 62.0413L93.3107 68.5783C97.9733 70.5677 99.6336 76.3367 96.7419 80.5002L86.199 95.6797C83.576 99.4562 78.317 100.25 74.6966 97.4152L62.7941 88.0964Z" fill="#D9D9D9"/>
<path fill-rule="evenodd" clip-rule="evenodd" d="M161.985 169.631V58.3196C162.256 58.3299 162.527 58.3405 162.8 58.3514C181.712 59.0924 223.536 63.0965 227.833 65.6126C233.906 69.169 252.423 87.8403 254.349 93.7678V101.473C240.918 121.33 208.19 163.267 199.538 166.231C194.415 167.986 178.154 169.408 161.985 169.631Z" fill="#7C7C7C"/>
<path fill-rule="evenodd" clip-rule="evenodd" d="M163.968 169.631V58.3196C163.697 58.3299 163.426 58.3405 163.153 58.3514C144.241 59.0924 102.417 63.0965 98.1203 65.6126C92.0469 69.169 73.5296 87.8403 71.6035 93.7678V101.473C85.0347 121.33 117.763 163.267 126.415 166.231C131.538 167.986 147.799 169.408 163.968 169.631Z" fill="#7C7C7C"/>
<path d="M99.9953 77.303H226.241C229.82 77.303 232.285 80.8932 231.001 84.2336L215.514 124.499L208.266 112.722L208.167 112.783V112.719L117.502 112.719V112.729L110.544 124.037L95.2353 84.2336C93.9505 80.8932 96.4163 77.303 99.9953 77.303Z" fill="#4F45E1"/>
<path d="M111.44 126.365L115.395 136.649C116.153 138.618 118.045 139.918 120.155 139.918H206.081C208.191 139.918 210.083 138.618 210.841 136.649L214.618 126.828L207.156 114.702L118.617 114.702L111.44 126.365Z" fill="#4F45E1"/>
<path d="M162.157 103.391V101.519H162.257L165.038 98.0497H166.804L164.018 101.477H163.708L162.157 103.391ZM160.632 105.636V98.0497H162.22V105.636H160.632ZM165.101 105.636L162.667 102.04L163.813 100.999L166.999 105.636H165.101Z" fill="white"/>
<path d="M167.535 105.636V100H169.07V100.946H169.101C169.217 100.624 169.413 100.366 169.69 100.174C169.971 99.9807 170.3 99.8844 170.679 99.8844C170.941 99.8844 171.178 99.9299 171.388 100.021C171.599 100.112 171.776 100.244 171.919 100.415C172.066 100.587 172.17 100.797 172.229 101.046H172.261C172.345 100.808 172.471 100.603 172.639 100.431C172.811 100.256 173.013 100.121 173.244 100.026C173.479 99.9317 173.735 99.8844 174.012 99.8844C174.38 99.8844 174.702 99.9632 174.979 100.121C175.256 100.279 175.471 100.499 175.625 100.783C175.78 101.067 175.857 101.4 175.857 101.782V105.636H174.322V102.166C174.322 101.949 174.285 101.765 174.211 101.614C174.141 101.463 174.038 101.349 173.901 101.272C173.768 101.195 173.601 101.157 173.402 101.157C173.209 101.157 173.039 101.2 172.892 101.288C172.748 101.376 172.636 101.498 172.555 101.656C172.475 101.814 172.434 101.998 172.434 102.208V105.636H170.957V102.119C170.957 101.915 170.92 101.742 170.847 101.598C170.773 101.454 170.668 101.346 170.531 101.272C170.398 101.195 170.237 101.157 170.048 101.157C169.855 101.157 169.685 101.202 169.538 101.293C169.391 101.384 169.275 101.511 169.191 101.672C169.11 101.833 169.07 102.02 169.07 102.234V105.636H167.535Z" fill="white"/>
<path d="M179.594 98.0497L177.697 107.476H176.33L178.233 98.0497H179.594Z" fill="white"/>
<path d="M180.273 105.636V98.0497H181.86V101.13H185.277V98.0497H186.865V105.636H185.277V102.439H181.86V105.636H180.273Z" fill="white"/>
<path d="M136.66 130.852L136.949 129.527H133.18L133.443 128.06C133.601 127.846 133.769 127.626 133.948 127.398C134.126 127.17 134.316 126.933 134.515 126.688C134.719 126.443 134.933 126.189 135.157 125.926C135.381 125.659 135.616 125.384 135.861 125.1C136.107 124.817 136.362 124.522 136.629 124.217C136.895 123.909 137.172 123.592 137.459 123.266H139.788L138.732 128.207H139.725L139.452 129.527H138.463L138.174 130.852H136.66ZM134.873 128.223L134.868 128.255H137.244L138.059 124.475H138.027C137.876 124.643 137.715 124.825 137.544 125.022C137.372 125.214 137.195 125.416 137.013 125.626C136.834 125.833 136.652 126.047 136.466 126.267C136.28 126.485 136.096 126.704 135.914 126.925C135.732 127.145 135.553 127.366 135.378 127.587C135.202 127.804 135.034 128.016 134.873 128.223Z" fill="white"/>
<path d="M142.548 127.513L142.79 126.346H143.71C144.004 126.346 144.26 126.308 144.478 126.231C144.698 126.154 144.868 126.041 144.987 125.894C145.11 125.747 145.171 125.575 145.171 125.379C145.171 125.19 145.122 125.025 145.024 124.885C144.926 124.741 144.788 124.631 144.609 124.554C144.43 124.473 144.216 124.433 143.968 124.433C143.631 124.433 143.342 124.515 143.1 124.68C142.862 124.845 142.708 125.065 142.638 125.342H141.176C141.267 124.89 141.446 124.499 141.712 124.17C141.979 123.84 142.315 123.586 142.722 123.408C143.132 123.229 143.594 123.14 144.11 123.14C144.625 123.14 145.077 123.231 145.466 123.413C145.855 123.592 146.158 123.837 146.375 124.149C146.593 124.457 146.701 124.808 146.701 125.2C146.701 125.505 146.624 125.784 146.47 126.036C146.319 126.288 146.111 126.497 145.844 126.662C145.578 126.823 145.275 126.926 144.935 126.972L144.93 127.003C145.343 127.102 145.664 127.294 145.892 127.582C146.119 127.866 146.233 128.207 146.233 128.607C146.233 129.073 146.104 129.485 145.844 129.842C145.585 130.196 145.231 130.475 144.782 130.678C144.334 130.878 143.827 130.978 143.263 130.978C142.664 130.978 142.149 130.88 141.718 130.683C141.287 130.487 140.955 130.217 140.724 129.874C140.496 129.53 140.388 129.136 140.398 128.691C140.398 128.663 140.4 128.633 140.403 128.602C140.407 128.567 140.412 128.53 140.419 128.491H141.896C141.889 128.719 141.937 128.922 142.038 129.101C142.143 129.276 142.301 129.416 142.511 129.522C142.722 129.623 142.979 129.674 143.284 129.674C143.551 129.674 143.789 129.627 143.999 129.532C144.213 129.437 144.379 129.304 144.499 129.133C144.618 128.957 144.677 128.754 144.677 128.523C144.677 128.211 144.567 127.965 144.346 127.787C144.129 127.604 143.822 127.513 143.426 127.513H142.548Z" fill="white"/>
<path d="M150.155 130.983C149.605 130.983 149.125 130.862 148.715 130.62C148.308 130.378 147.991 130.039 147.763 129.6C147.539 129.162 147.427 128.651 147.427 128.065C147.427 127.347 147.516 126.688 147.695 126.089C147.874 125.486 148.126 124.964 148.452 124.522C148.781 124.081 149.169 123.739 149.614 123.497C150.062 123.255 150.553 123.134 151.086 123.134C151.639 123.134 152.119 123.255 152.526 123.497C152.936 123.739 153.253 124.079 153.478 124.517C153.705 124.951 153.819 125.463 153.819 126.052C153.819 126.77 153.73 127.431 153.551 128.034C153.372 128.637 153.118 129.159 152.789 129.6C152.463 130.039 152.076 130.378 151.627 130.62C151.182 130.862 150.691 130.983 150.155 130.983ZM149.041 128.029C149.041 128.376 149.088 128.672 149.183 128.917C149.277 129.162 149.412 129.35 149.587 129.48C149.763 129.609 149.973 129.674 150.218 129.674C150.492 129.674 150.747 129.581 150.986 129.395C151.228 129.206 151.44 128.947 151.622 128.617C151.804 128.288 151.946 127.906 152.048 127.471C152.153 127.037 152.205 126.574 152.205 126.083C152.205 125.737 152.158 125.442 152.063 125.2C151.969 124.955 151.834 124.769 151.659 124.643C151.483 124.513 151.273 124.449 151.028 124.449C150.754 124.449 150.497 124.543 150.255 124.732C150.017 124.918 149.806 125.176 149.624 125.505C149.442 125.835 149.298 126.217 149.193 126.651C149.091 127.082 149.041 127.541 149.041 128.029Z" fill="white"/>
<path d="M157.357 130.983C156.807 130.983 156.327 130.862 155.917 130.62C155.51 130.378 155.193 130.039 154.965 129.6C154.741 129.162 154.629 128.651 154.629 128.065C154.629 127.347 154.718 126.688 154.897 126.089C155.076 125.486 155.328 124.964 155.654 124.522C155.983 124.081 156.371 123.739 156.816 123.497C157.264 123.255 157.755 123.134 158.288 123.134C158.841 123.134 159.322 123.255 159.728 123.497C160.138 123.739 160.455 124.079 160.68 124.517C160.908 124.951 161.021 125.463 161.021 126.052C161.021 126.77 160.932 127.431 160.753 128.034C160.575 128.637 160.32 129.159 159.991 129.6C159.665 130.039 159.278 130.378 158.829 130.62C158.384 130.862 157.893 130.983 157.357 130.983ZM156.243 128.029C156.243 128.376 156.29 128.672 156.385 128.917C156.479 129.162 156.614 129.35 156.789 129.48C156.965 129.609 157.175 129.674 157.42 129.674C157.694 129.674 157.95 129.581 158.188 129.395C158.43 129.206 158.642 128.947 158.824 128.617C159.006 128.288 159.148 127.906 159.25 127.471C159.355 127.037 159.407 126.574 159.407 126.083C159.407 125.737 159.36 125.442 159.266 125.2C159.171 124.955 159.036 124.769 158.861 124.643C158.686 124.513 158.475 124.449 158.23 124.449C157.957 124.449 157.699 124.543 157.457 124.732C157.219 124.918 157.009 125.176 156.826 125.505C156.644 125.835 156.5 126.217 156.395 126.651C156.294 127.082 156.243 127.541 156.243 128.029Z" fill="white"/>
<path d="M164.559 130.983C164.009 130.983 163.529 130.862 163.119 130.62C162.712 130.378 162.395 130.039 162.167 129.6C161.943 129.162 161.831 128.651 161.831 128.065C161.831 127.347 161.92 126.688 162.099 126.089C162.278 125.486 162.53 124.964 162.856 124.522C163.186 124.081 163.573 123.739 164.018 123.497C164.467 123.255 164.957 123.134 165.49 123.134C166.044 123.134 166.524 123.255 166.93 123.497C167.34 123.739 167.658 124.079 167.882 124.517C168.11 124.951 168.224 125.463 168.224 126.052C168.224 126.77 168.134 127.431 167.955 128.034C167.777 128.637 167.523 129.159 167.193 129.6C166.867 130.039 166.48 130.378 166.031 130.62C165.586 130.862 165.096 130.983 164.559 130.983ZM163.445 128.029C163.445 128.376 163.492 128.672 163.587 128.917C163.681 129.162 163.816 129.35 163.992 129.48C164.167 129.609 164.377 129.674 164.622 129.674C164.896 129.674 165.152 129.581 165.39 129.395C165.632 129.206 165.844 128.947 166.026 128.617C166.208 128.288 166.35 127.906 166.452 127.471C166.557 127.037 166.61 126.574 166.61 126.083C166.61 125.737 166.562 125.442 166.468 125.2C166.373 124.955 166.238 124.769 166.063 124.643C165.888 124.513 165.677 124.449 165.432 124.449C165.159 124.449 164.901 124.543 164.659 124.732C164.421 124.918 164.211 125.176 164.028 125.505C163.846 125.835 163.702 126.217 163.597 126.651C163.496 127.082 163.445 127.541 163.445 128.029Z" fill="white"/>
<path d="M171.762 130.983C171.211 130.983 170.731 130.862 170.321 130.62C169.915 130.378 169.597 130.039 169.37 129.6C169.145 129.162 169.033 128.651 169.033 128.065C169.033 127.347 169.122 126.688 169.301 126.089C169.48 125.486 169.732 124.964 170.058 124.522C170.388 124.081 170.775 123.739 171.22 123.497C171.669 123.255 172.159 123.134 172.692 123.134C173.246 123.134 173.726 123.255 174.132 123.497C174.542 123.739 174.86 124.079 175.084 124.517C175.312 124.951 175.426 125.463 175.426 126.052C175.426 126.77 175.336 127.431 175.158 128.034C174.979 128.637 174.725 129.159 174.395 129.6C174.069 130.039 173.682 130.378 173.233 130.62C172.788 130.862 172.298 130.983 171.762 130.983ZM170.647 128.029C170.647 128.376 170.694 128.672 170.789 128.917C170.884 129.162 171.019 129.35 171.194 129.48C171.369 129.609 171.579 129.674 171.825 129.674C172.098 129.674 172.354 129.581 172.592 129.395C172.834 129.206 173.046 128.947 173.228 128.617C173.41 128.288 173.552 127.906 173.654 127.471C173.759 127.037 173.812 126.574 173.812 126.083C173.812 125.737 173.764 125.442 173.67 125.2C173.575 124.955 173.44 124.769 173.265 124.643C173.09 124.513 172.88 124.449 172.634 124.449C172.361 124.449 172.103 124.543 171.861 124.732C171.623 124.918 171.413 125.176 171.231 125.505C171.048 125.835 170.905 126.217 170.799 126.651C170.698 127.082 170.647 127.541 170.647 128.029Z" fill="white"/>
<path d="M179.652 130.852H178.054L179.668 123.266H181.266L180.546 126.63H180.578L184.089 123.266H185.977L182.407 126.751L184.462 130.852H182.691L181.103 127.703L180.136 128.617L179.652 130.852Z" fill="white"/>
<path d="M185.051 130.852L186.25 125.2H187.696L187.501 126.099H187.533C187.694 125.801 187.925 125.556 188.227 125.363C188.528 125.17 188.856 125.074 189.21 125.074C189.585 125.074 189.9 125.17 190.156 125.363C190.412 125.556 190.58 125.796 190.661 126.083H190.687C190.816 125.894 190.972 125.724 191.155 125.574C191.34 125.419 191.551 125.298 191.786 125.211C192.02 125.12 192.281 125.074 192.569 125.074C192.874 125.074 193.144 125.142 193.378 125.279C193.617 125.412 193.804 125.596 193.941 125.831C194.078 126.066 194.146 126.338 194.146 126.646C194.146 126.748 194.139 126.854 194.125 126.967C194.114 127.079 194.097 127.194 194.072 127.314L193.326 130.852H191.833L192.527 127.545C192.544 127.464 192.557 127.389 192.564 127.319C192.574 127.249 192.579 127.18 192.579 127.114C192.579 126.89 192.509 126.704 192.369 126.557C192.229 126.406 192.036 126.331 191.791 126.331C191.616 126.331 191.449 126.374 191.291 126.462C191.134 126.546 190.997 126.669 190.881 126.83C190.769 126.991 190.689 127.184 190.64 127.408L189.914 130.852H188.468L189.162 127.545C189.18 127.464 189.192 127.389 189.199 127.319C189.21 127.249 189.215 127.18 189.215 127.114C189.215 126.89 189.145 126.704 189.005 126.557C188.868 126.406 188.675 126.331 188.426 126.331C188.251 126.331 188.085 126.376 187.927 126.467C187.769 126.555 187.632 126.679 187.517 126.84C187.405 126.998 187.326 127.187 187.28 127.408L186.55 130.852H185.051Z" fill="white"/>
<path d="M134.314 119.806C134.314 119.794 134.314 119.783 134.314 119.771C134.316 119.759 134.316 119.748 134.316 119.738C134.371 119.738 134.425 119.738 134.478 119.738C134.532 119.738 134.586 119.738 134.639 119.738C134.694 119.738 134.748 119.738 134.801 119.738C134.856 119.738 134.91 119.738 134.965 119.738C134.965 119.741 134.965 119.744 134.965 119.749C134.965 119.752 134.965 119.755 134.965 119.758C134.966 119.871 135.002 119.961 135.073 120.028C135.146 120.094 135.242 120.127 135.363 120.127C135.487 120.127 135.588 120.089 135.666 120.012C135.745 119.934 135.8 119.818 135.832 119.665L136.304 117.458H136.972L136.481 119.764C136.416 120.077 136.286 120.317 136.091 120.484C135.897 120.65 135.644 120.734 135.334 120.734C135.128 120.734 134.947 120.695 134.792 120.616C134.637 120.537 134.517 120.428 134.431 120.289C134.347 120.15 134.308 119.989 134.314 119.806Z" fill="white"/>
<path d="M137.973 120.205C138.064 120.205 138.15 120.187 138.23 120.152C138.309 120.116 138.376 120.068 138.429 120.008C138.484 119.946 138.52 119.876 138.537 119.797L138.584 119.587L138.079 119.605C137.933 119.611 137.818 119.643 137.734 119.702C137.65 119.76 137.608 119.836 137.608 119.93C137.608 120.011 137.642 120.078 137.71 120.129C137.777 120.18 137.865 120.205 137.973 120.205ZM137.701 120.689C137.563 120.689 137.44 120.661 137.331 120.603C137.222 120.544 137.135 120.464 137.07 120.364C137.006 120.264 136.975 120.15 136.975 120.023C136.975 119.775 137.07 119.579 137.26 119.434C137.452 119.29 137.719 119.212 138.061 119.2L138.668 119.18L138.701 119.029C138.706 119.007 138.709 118.99 138.71 118.978C138.711 118.965 138.712 118.953 138.712 118.941C138.712 118.855 138.676 118.788 138.604 118.739C138.531 118.691 138.433 118.666 138.309 118.666C138.24 118.666 138.177 118.675 138.119 118.693C138.063 118.709 138.015 118.733 137.975 118.766C137.937 118.797 137.907 118.836 137.884 118.883H137.276C137.311 118.734 137.378 118.606 137.477 118.498C137.577 118.389 137.703 118.305 137.853 118.246C138.004 118.187 138.171 118.157 138.356 118.157C138.555 118.157 138.728 118.188 138.876 118.248C139.025 118.307 139.141 118.39 139.224 118.498C139.306 118.606 139.348 118.732 139.348 118.877C139.348 118.908 139.346 118.941 139.343 118.976C139.34 119.012 139.335 119.044 139.328 119.074L138.993 120.652H138.367L138.431 120.351H138.391C138.346 120.42 138.287 120.48 138.214 120.53C138.142 120.58 138.062 120.619 137.975 120.647C137.888 120.675 137.797 120.689 137.701 120.689Z" fill="white"/>
<path d="M139.591 120.652L140.111 118.21H140.738L140.669 118.547H140.709C140.775 118.426 140.86 118.333 140.963 118.268C141.068 118.203 141.185 118.171 141.315 118.171C141.377 118.171 141.436 118.175 141.49 118.184C141.546 118.193 141.593 118.206 141.63 118.224L141.501 118.817C141.453 118.798 141.393 118.782 141.322 118.77C141.253 118.759 141.188 118.753 141.129 118.753C141.023 118.753 140.929 118.773 140.848 118.815C140.767 118.854 140.7 118.916 140.647 118.998C140.594 119.08 140.554 119.182 140.527 119.306L140.237 120.652H139.591Z" fill="white"/>
<path d="M142.586 120.205C142.677 120.205 142.763 120.187 142.843 120.152C142.922 120.116 142.989 120.068 143.042 120.008C143.096 119.946 143.133 119.876 143.15 119.797L143.197 119.587L142.692 119.605C142.546 119.611 142.431 119.643 142.347 119.702C142.263 119.76 142.221 119.836 142.221 119.93C142.221 120.011 142.255 120.078 142.322 120.129C142.39 120.18 142.478 120.205 142.586 120.205ZM142.314 120.689C142.176 120.689 142.053 120.661 141.944 120.603C141.835 120.544 141.748 120.464 141.683 120.364C141.619 120.264 141.588 120.15 141.588 120.023C141.588 119.775 141.683 119.579 141.873 119.434C142.065 119.29 142.332 119.212 142.674 119.2L143.281 119.18L143.314 119.029C143.318 119.007 143.321 118.99 143.323 118.978C143.324 118.965 143.325 118.953 143.325 118.941C143.325 118.855 143.289 118.788 143.217 118.739C143.144 118.691 143.046 118.666 142.922 118.666C142.853 118.666 142.789 118.675 142.732 118.693C142.676 118.709 142.628 118.733 142.588 118.766C142.55 118.797 142.519 118.836 142.497 118.883H141.889C141.924 118.734 141.991 118.606 142.09 118.498C142.19 118.389 142.316 118.305 142.466 118.246C142.617 118.187 142.784 118.157 142.969 118.157C143.168 118.157 143.341 118.188 143.489 118.248C143.638 118.307 143.754 118.39 143.836 118.498C143.919 118.606 143.96 118.732 143.96 118.877C143.96 118.908 143.959 118.941 143.956 118.976C143.953 119.012 143.948 119.044 143.94 119.074L143.606 120.652H142.98L143.044 120.351H143.004C142.958 120.42 142.899 120.48 142.827 120.53C142.755 120.58 142.675 120.619 142.588 120.647C142.501 120.675 142.409 120.689 142.314 120.689Z" fill="white"/>
<path d="M144.877 120.652H144.23L144.948 117.278H145.592L145.2 119.125H145.24L146.231 118.21H146.984L145.813 119.277L146.539 120.652H145.829L145.293 119.64L145.049 119.848L144.877 120.652Z" fill="white"/>
<path d="M149.576 120.652H148.903L149.465 118.029H148.509L148.626 117.458H151.212L151.094 118.029H150.138L149.576 120.652Z" fill="white"/>
<path d="M151.482 119.171H152.542C152.544 119.164 152.545 119.152 152.547 119.136C152.548 119.118 152.549 119.102 152.549 119.087C152.549 119.006 152.53 118.933 152.493 118.868C152.458 118.801 152.406 118.749 152.338 118.711C152.272 118.672 152.192 118.653 152.097 118.653C151.998 118.653 151.908 118.675 151.825 118.719C151.742 118.762 151.671 118.823 151.612 118.901C151.553 118.978 151.51 119.068 151.482 119.171ZM151.882 120.705C151.673 120.705 151.486 120.664 151.322 120.581C151.16 120.498 151.032 120.379 150.94 120.222C150.848 120.065 150.802 119.876 150.802 119.656C150.802 119.433 150.834 119.23 150.897 119.047C150.961 118.863 151.052 118.704 151.17 118.571C151.288 118.438 151.427 118.337 151.588 118.266C151.75 118.193 151.929 118.157 152.124 118.157C152.319 118.157 152.493 118.199 152.648 118.283C152.803 118.366 152.926 118.484 153.016 118.638C153.107 118.791 153.153 118.972 153.153 119.18C153.153 119.229 153.149 119.293 153.142 119.372C153.135 119.452 153.126 119.521 153.115 119.578H151.411C151.411 119.59 151.41 119.602 151.409 119.614C151.409 119.624 151.409 119.635 151.409 119.647C151.409 119.772 151.432 119.876 151.48 119.959C151.527 120.04 151.59 120.101 151.668 120.143C151.746 120.183 151.831 120.203 151.922 120.203C152.046 120.203 152.148 120.18 152.228 120.134C152.309 120.088 152.368 120.027 152.405 119.95H153.025C152.988 120.099 152.917 120.231 152.812 120.344C152.709 120.458 152.578 120.546 152.42 120.61C152.262 120.673 152.083 120.705 151.882 120.705Z" fill="white"/>
<path d="M153.421 120.652L153.939 118.21H154.565L154.479 118.613H154.519C154.594 118.48 154.693 118.373 154.815 118.292C154.938 118.211 155.071 118.171 155.216 118.171C155.387 118.171 155.527 118.216 155.634 118.306C155.742 118.396 155.811 118.499 155.842 118.615H155.882C155.94 118.525 156.006 118.447 156.081 118.381C156.157 118.314 156.243 118.263 156.34 118.226C156.438 118.189 156.547 118.171 156.668 118.171C156.802 118.171 156.92 118.201 157.022 118.261C157.124 118.32 157.204 118.401 157.261 118.505C157.32 118.608 157.35 118.725 157.35 118.854C157.35 118.899 157.347 118.945 157.341 118.994C157.337 119.043 157.329 119.093 157.319 119.144L157 120.652H156.356L156.653 119.244C156.66 119.209 156.665 119.176 156.668 119.147C156.672 119.116 156.675 119.086 156.675 119.058C156.675 118.959 156.644 118.877 156.584 118.812C156.523 118.746 156.439 118.713 156.332 118.713C156.256 118.713 156.185 118.732 156.117 118.77C156.049 118.807 155.99 118.861 155.94 118.932C155.891 119.003 155.856 119.088 155.834 119.187L155.524 120.652H154.899L155.198 119.244C155.206 119.209 155.211 119.176 155.214 119.147C155.218 119.116 155.22 119.086 155.22 119.058C155.22 118.959 155.189 118.877 155.127 118.812C155.067 118.746 154.984 118.713 154.877 118.713C154.801 118.713 154.728 118.732 154.66 118.77C154.593 118.807 154.534 118.86 154.486 118.93C154.437 118.999 154.402 119.081 154.381 119.175L154.067 120.652H153.421Z" fill="white"/>
<path d="M158.963 120.143C159.061 120.143 159.151 120.12 159.233 120.074C159.318 120.027 159.391 119.961 159.453 119.877C159.515 119.793 159.563 119.695 159.599 119.583C159.634 119.469 159.652 119.347 159.652 119.215C159.652 119.049 159.609 118.922 159.523 118.835C159.439 118.748 159.33 118.704 159.196 118.704C159.098 118.704 159.008 118.728 158.924 118.777C158.839 118.824 158.765 118.891 158.7 118.976C158.637 119.06 158.586 119.158 158.549 119.268C158.514 119.379 158.496 119.497 158.496 119.623C158.496 119.791 158.54 119.92 158.627 120.01C158.716 120.098 158.828 120.143 158.963 120.143ZM158.091 121.462H157.447L158.138 118.21H158.764L158.691 118.549H158.731C158.817 118.435 158.923 118.344 159.05 118.275C159.177 118.205 159.321 118.171 159.484 118.171C159.647 118.171 159.792 118.209 159.917 118.286C160.043 118.362 160.141 118.471 160.212 118.611C160.284 118.75 160.32 118.914 160.32 119.105C160.32 119.332 160.289 119.542 160.227 119.735C160.165 119.929 160.078 120.097 159.966 120.24C159.855 120.382 159.726 120.492 159.577 120.572C159.429 120.65 159.268 120.689 159.094 120.689C158.976 120.689 158.87 120.67 158.775 120.63C158.681 120.588 158.601 120.532 158.536 120.459C158.473 120.387 158.428 120.304 158.401 120.209H158.361L158.091 121.462Z" fill="white"/>
<path d="M163.3 118.21L162.784 120.652H162.157L162.237 120.282H162.197C162.149 120.368 162.089 120.442 162.018 120.506C161.949 120.569 161.868 120.618 161.777 120.652C161.687 120.687 161.585 120.705 161.471 120.705C161.322 120.705 161.192 120.675 161.08 120.616C160.967 120.557 160.88 120.475 160.818 120.369C160.756 120.261 160.725 120.135 160.725 119.992C160.725 119.954 160.728 119.906 160.734 119.848C160.74 119.791 160.748 119.735 160.759 119.68L161.066 118.21H161.715L161.425 119.574C161.417 119.605 161.412 119.639 161.407 119.676C161.404 119.711 161.403 119.741 161.403 119.764C161.403 119.89 161.434 119.985 161.498 120.05C161.561 120.115 161.658 120.147 161.788 120.147C161.887 120.147 161.974 120.126 162.049 120.083C162.126 120.04 162.189 119.98 162.239 119.904C162.291 119.827 162.328 119.738 162.35 119.636L162.653 118.21H163.3Z" fill="white"/>
<path d="M163.43 120.652L164.145 117.298H164.792L164.515 118.578H164.555C164.63 118.46 164.726 118.362 164.842 118.283C164.96 118.204 165.11 118.164 165.292 118.164C165.447 118.164 165.579 118.195 165.688 118.257C165.799 118.319 165.883 118.403 165.94 118.509C165.999 118.615 166.029 118.734 166.029 118.866C166.029 118.91 166.026 118.956 166.02 119.005C166.016 119.054 166.008 119.104 165.998 119.156L165.684 120.652H165.039L165.332 119.262C165.339 119.229 165.344 119.198 165.347 119.169C165.352 119.138 165.354 119.107 165.354 119.076C165.354 118.959 165.318 118.867 165.245 118.799C165.173 118.731 165.074 118.697 164.949 118.697C164.851 118.697 164.763 118.719 164.685 118.762C164.609 118.804 164.544 118.863 164.493 118.939C164.443 119.012 164.407 119.097 164.386 119.193L164.077 120.652H163.43Z" fill="white"/>
<path d="M148.102 107.778C145.941 107.778 144.082 107.241 142.524 106.167C140.966 105.093 139.767 103.57 138.929 101.598C138.103 99.6149 137.69 97.2715 137.69 94.5681V94.5327C137.69 91.8175 138.103 89.4742 138.929 87.5027C139.767 85.5312 140.966 84.0142 142.524 82.9518C144.082 81.8775 145.941 81.3403 148.102 81.3403C150.262 81.3403 152.116 81.8775 153.662 82.9518C155.22 84.0142 156.419 85.5312 157.257 87.5027C158.095 89.4742 158.514 91.8175 158.514 94.5327V94.5681C158.514 97.2715 158.095 99.6149 157.257 101.598C156.419 103.57 155.22 105.093 153.662 106.167C152.116 107.241 150.262 107.778 148.102 107.778ZM148.102 103.493C149.164 103.493 150.067 103.139 150.811 102.43C151.555 101.722 152.122 100.701 152.511 99.367C152.912 98.033 153.113 96.4334 153.113 94.5681V94.5327C153.113 92.6557 152.912 91.0561 152.511 89.7339C152.122 88.3999 151.555 87.3846 150.811 86.6881C150.067 85.9798 149.164 85.6256 148.102 85.6256C147.039 85.6256 146.13 85.9798 145.375 86.6881C144.631 87.3846 144.064 88.3999 143.675 89.7339C143.285 91.0561 143.091 92.6557 143.091 94.5327V94.5681C143.091 96.4334 143.285 98.033 143.675 99.367C144.064 100.701 144.631 101.722 145.375 102.43C146.13 103.139 147.039 103.493 148.102 103.493Z" fill="white"/>
<path fill-rule="evenodd" clip-rule="evenodd" d="M106.257 82.1196C103.178 82.1196 101.03 85.1715 102.069 88.0695H113.536V82.1196H106.257ZM113.536 89.4863H102.77L104.753 95.4361H113.536V89.4863ZM105.319 96.8527H113.536V102.803H107.51L105.319 96.8527ZM113.536 104.219H108.153L110.11 110.169H113.536V104.219Z" fill="#D9D9D9"/>
<path d="M179.834 82.164C179.834 82.0788 179.869 81.9839 179.949 81.9103L181.49 80.4809C181.618 80.3647 181.703 80.3183 181.82 80.3183C182.004 80.3183 182.139 80.4616 182.139 80.6417V81.2944H183.586C183.919 81.2944 184.111 81.4861 184.111 81.8135V82.5262C184.111 82.8555 183.919 83.0453 183.586 83.0453H182.139V83.6941C182.139 83.8742 182.004 84.0117 181.822 84.0117C181.702 84.0117 181.607 83.9633 181.49 83.8568L179.949 82.4197C179.871 82.3461 179.834 82.2473 179.834 82.164Z" fill="#E8BD4B"/>
<path d="M209.517 82.164C209.517 82.0788 209.482 81.9839 209.402 81.9103L207.861 80.4809C207.733 80.3647 207.648 80.3183 207.532 80.3183C207.348 80.3183 207.212 80.4616 207.212 80.6417V81.2944H205.765C205.432 81.2944 205.24 81.4861 205.24 81.8135V82.5262C205.24 82.8555 205.432 83.0453 205.765 83.0453H207.212V83.6941C207.212 83.8742 207.348 84.0117 207.53 84.0117C207.65 84.0117 207.745 83.9633 207.861 83.8568L209.402 82.4197C209.48 82.3461 209.517 82.2473 209.517 82.164Z" fill="#E8BD4B"/>
<path d="M192.905 84.0156C192.464 84.0156 192.221 83.7754 192.221 83.3358V81.521C192.221 81.0814 192.464 80.8412 192.905 80.8412H193.118V80.6243C193.118 80.4287 193.23 80.3124 193.426 80.3124H193.916C194.112 80.3124 194.224 80.4287 194.224 80.6243V80.8412H194.842V80.6243C194.842 80.4287 194.954 80.3124 195.15 80.3124H195.64C195.835 80.3124 195.948 80.4287 195.948 80.6243V80.8412H196.161C196.604 80.8412 196.845 81.0814 196.845 81.521V83.3358C196.845 83.7754 196.604 84.0156 196.161 84.0156H192.905Z" fill="#FFE7A6"/>
<path d="M200.351 82.164C200.349 81.798 200.376 81.4319 200.483 81.0542C200.615 80.6243 200.857 80.4635 201.362 80.4635H201.477C202.67 80.4635 203.706 81.244 203.706 82.164C203.706 83.0821 202.67 83.8645 201.477 83.8645H201.362C200.855 83.8645 200.611 83.7038 200.483 83.2719C200.376 82.8961 200.349 82.5281 200.351 82.164ZM198.395 81.0446C198.395 80.9322 198.488 80.8412 198.598 80.8412H200.181C200.138 80.9497 200.111 81.062 200.072 81.2479H198.598C198.488 81.2479 198.395 81.1588 198.395 81.0446ZM198.395 81.7902C198.395 81.6779 198.488 81.5869 198.598 81.5869H200.022C200.007 81.7244 199.997 81.8619 199.995 81.9955H198.598C198.488 81.9955 198.395 81.9026 198.395 81.7902ZM198.395 82.5378C198.395 82.4274 198.488 82.3325 198.598 82.3325H199.995C199.999 82.4662 200.007 82.6017 200.022 82.7412H198.598C198.488 82.7412 198.395 82.6502 198.395 82.5378ZM198.395 83.2835C198.395 83.1731 198.488 83.0801 198.598 83.0801H200.072C200.099 83.2157 200.138 83.3745 200.183 83.4888L198.598 83.4869C198.488 83.4869 198.395 83.3958 198.395 83.2835Z" fill="#1A95D3"/>
<path d="M186.607 84.129V80.1365H187.338L189.142 82.7318H189.159V80.1365H189.991V84.129H189.266L187.457 81.5144H187.44V84.129H186.607Z" fill="#6CC834"/>
<path d="M189.185 139.918C189.185 144.427 186.424 148.751 181.509 151.939C176.594 155.127 169.928 156.918 162.977 156.918C156.027 156.918 149.36 155.127 144.446 151.939C139.531 148.751 136.77 144.427 136.77 139.918L162.977 139.918H189.185Z" fill="#D9D9D9"/>
<path d="M116.93 85.8029V83.0081H118.76V83.4903H117.515V84.2399H118.652V84.7028H117.515V85.8029H116.93Z" fill="white"/>
<path d="M116.882 109.461V106.666H118.733V107.148H117.467V107.818H118.662V108.275H117.467V108.978H118.733V109.461H116.882Z" fill="white"/>
<path d="M95.002 84.1015L110.39 124.191L117.471 112.81H208.399L215.48 124.76L231.023 84.0946C232.339 80.6522 229.797 76.9592 226.112 76.9592H99.9109C96.2225 76.9592 93.6803 80.6579 95.002 84.1015Z" fill="black" fill-opacity="0.59"/>
<path d="M118.5 114.5L111.5 126.5L115.291 136.737C116.018 138.698 117.888 140 119.98 140H206.066C208.135 140 209.99 138.726 210.733 136.795L214.5 127L207 114.5H118.5Z" fill="black" fill-opacity="0.57"/>
</svg>
