<svg width="25" height="18" viewBox="0 0 25 18" fill="none" xmlns="http://www.w3.org/2000/svg">
<rect width="25" height="18" fill="#ABA6A6"/>
<g id="Dashboard Fix_State Pertama" clip-path="url(#clip0_1753_7745)">
<rect width="393" height="1371" transform="translate(-199 -369)" fill="url(#paint0_linear_1753_7745)"/>
<g id="Busi Button" clip-path="url(#clip1_1753_7745)">
<g id="Frame 17">
<rect x="-37.5" y="-12.5" width="112.717" height="42.9446" rx="15.5" stroke="#FFF9F9"/>
<g id="spark plug">
<path d="M13.9643 3.94452C14.3544 3.67569 14.8645 3.73895 15.1035 4.08583L18.0177 8.3149C18.2567 8.66178 18.1342 9.16091 17.7441 9.42974L14.7301 11.5066C14.34 11.7754 13.8299 11.7122 13.5909 11.3653L10.6767 7.13624C10.4377 6.78936 10.5602 6.29022 10.9503 6.02139L13.9643 3.94452Z" fill="white"/>
<path d="M9.63339 6.12608C9.97151 5.89309 10.4135 5.94792 10.6207 6.24855L14.4005 11.7338C14.6076 12.0344 14.5015 12.467 14.1633 12.7C13.8252 12.933 13.3832 12.8781 13.176 12.5775L9.39627 7.09228C9.18911 6.79165 9.29527 6.35907 9.63339 6.12608Z" fill="white"/>
<path d="M8.21926 5.98895C8.53137 5.77389 8.9394 5.8245 9.13062 6.102L13.8914 13.0109C14.0826 13.2884 13.9846 13.6877 13.6725 13.9027L12.2126 14.9087C11.9005 15.1238 11.4925 15.0732 11.3013 14.7957L6.54049 7.88681C6.34927 7.60931 6.44726 7.21001 6.75937 6.99494L8.21926 5.98895Z" fill="white"/>
<path d="M6.49771 9.33664C6.70578 9.19326 6.9778 9.227 7.10528 9.412L10.1926 13.8923C10.3201 14.0773 10.2547 14.3435 10.0466 14.4869L9.38734 14.9412C9.17927 15.0846 8.90725 15.0508 8.77977 14.8658L5.69248 10.3855C5.565 10.2005 5.63033 9.93433 5.83841 9.79095L6.49771 9.33664Z" fill="white"/>
<path d="M4.84945 10.4724C5.05752 10.329 5.32953 10.3628 5.45702 10.5478L8.5443 15.0281C8.67179 15.2131 8.60646 15.4793 8.39838 15.6227L7.73908 16.077C7.53101 16.2204 7.25899 16.1866 7.13151 16.0016L4.04422 11.5213C3.91674 11.3363 3.98207 11.0701 4.19014 10.9267L4.84945 10.4724Z" fill="white"/>
<path d="M3.20118 11.6082C3.40925 11.4648 3.68127 11.4986 3.80875 11.6836L6.89604 16.1639C7.02352 16.3489 6.95819 16.6151 6.75012 16.7585L6.09081 17.2128C5.88274 17.3562 5.61072 17.3224 5.48324 17.1374L2.39595 12.6571C2.26847 12.4721 2.3338 12.2059 2.54188 12.0625L3.20118 11.6082Z" fill="white"/>
<path d="M1.43151 13.6815C1.63897 13.1829 2.32596 13.0595 2.60879 13.4699L3.83397 15.2479C4.02519 15.5254 3.9272 15.9247 3.61509 16.1398L3.28544 16.367C2.97333 16.582 2.5653 16.5314 2.37408 16.2539L1.29549 14.6887C1.1846 14.5277 1.16711 14.3168 1.24845 14.1213L1.43151 13.6815Z" fill="white"/>
<path d="M4.18262 17.6739C4.72233 17.6575 5.0823 17.0595 4.79948 16.6491L3.57429 14.8711C3.38307 14.5936 2.97504 14.543 2.66294 14.758L2.33328 14.9852C2.02117 15.2003 1.92318 15.5996 2.1144 15.8771L3.19299 17.4423C3.30388 17.6033 3.49476 17.6947 3.70637 17.6883L4.18262 17.6739Z" fill="white"/>
<path d="M2.74453 17.2955C2.58373 17.4063 2.40511 17.4878 2.21886 17.5355C2.0326 17.5832 1.84237 17.596 1.65901 17.5732C1.47565 17.5505 1.30276 17.4926 1.15021 17.4029C0.99766 17.3133 0.868437 17.1935 0.769922 17.0505C0.671406 16.9076 0.605528 16.7442 0.576044 16.5697C0.546561 16.3952 0.554053 16.2131 0.598089 16.0336C0.642127 15.8542 0.721849 15.681 0.832703 15.5239C0.943556 15.3668 1.08337 15.2289 1.24416 15.1181L1.64831 15.7046C1.57414 15.7558 1.50964 15.8194 1.45851 15.8918C1.40738 15.9643 1.37061 16.0442 1.35029 16.1269C1.32998 16.2097 1.32652 16.2937 1.34012 16.3742C1.35372 16.4547 1.38411 16.5301 1.42956 16.596C1.475 16.662 1.5346 16.7172 1.60497 16.7586C1.67534 16.7999 1.75509 16.8266 1.83966 16.8371C1.92424 16.8476 2.01199 16.8417 2.09791 16.8197C2.18382 16.7977 2.26621 16.7601 2.34038 16.709L2.74453 17.2955Z" fill="white"/>
<path d="M19.7017 2.09061C19.9098 1.94723 20.1818 1.98097 20.3093 2.16597L21.6654 4.13395C21.7929 4.31895 21.7276 4.58516 21.5195 4.72854L20.9073 5.1504C20.6992 5.29378 20.4272 5.26004 20.2997 5.07503L18.9436 3.10705C18.8161 2.92205 18.8815 2.65585 19.0895 2.51247L19.7017 2.09061Z" fill="white"/>
<path d="M20.8791 1.27933C21.0871 1.13595 21.3592 1.16969 21.4866 1.35469L22.8427 3.32268C22.9702 3.50768 22.9049 3.77388 22.6968 3.91726L22.273 4.20932C22.0649 4.3527 21.7929 4.31895 21.6654 4.13395L20.3093 2.16597C20.1818 1.98097 20.2472 1.71477 20.4552 1.57139L20.8791 1.27933Z" fill="white"/>
<path d="M18.336 3.03169C18.5441 2.88831 18.8161 2.92205 18.9436 3.10705L20.2997 5.07503C20.4272 5.26004 20.3619 5.52624 20.1538 5.66962L19.5416 6.09148C19.3335 6.23486 19.0615 6.20112 18.934 6.01612L17.5779 4.04814C17.4504 3.86313 17.5158 3.59693 17.7238 3.45355L18.336 3.03169Z" fill="white"/>
<path d="M16.8625 3.61476C17.0186 3.50723 17.2226 3.53254 17.3182 3.67129L19.1648 6.35109C19.2604 6.48984 19.2114 6.6895 19.0554 6.79703L18.2548 7.3487C18.0988 7.45623 17.8947 7.43093 17.7991 7.29217L15.9525 4.61237C15.8569 4.47362 15.9059 4.27397 16.062 4.16643L16.8625 3.61476Z" fill="white"/>
<path d="M22.4574 0.747545C22.9775 0.3891 23.6576 0.473457 23.9763 0.935962L24.0917 1.10345C24.4104 1.56595 24.2471 2.23146 23.7269 2.58991L23.3031 2.88197C23.199 2.95366 23.063 2.93679 22.9993 2.84429L21.9606 1.3369C21.8968 1.2444 21.9295 1.11129 22.0335 1.0396L22.4574 0.747545Z" fill="white"/>
</g>
</g>
</g>
</g>
<defs>
<linearGradient id="paint0_linear_1753_7745" x1="382.5" y1="-15.1659" x2="110.936" y2="539.316" gradientUnits="userSpaceOnUse">
<stop stop-color="#476B6D"/>
<stop offset="1" stop-color="#020A0B"/>
</linearGradient>
<clipPath id="clip0_1753_7745">
<rect width="393" height="1371" fill="white" transform="translate(-199 -369)"/>
</clipPath>
<clipPath id="clip1_1753_7745">
<rect width="114" height="44" fill="white" transform="translate(-38 -13)"/>
</clipPath>
</defs>
</svg>
