<svg width="289" height="233" viewBox="0 0 289 233" fill="none" xmlns="http://www.w3.org/2000/svg">
<path d="M219.597 99.7802L244.419 106.44L233.027 123.203C233.02 123.232 233.006 123.277 232.982 123.342C232.927 123.492 232.835 123.702 232.702 123.975C232.438 124.519 232.035 125.271 231.509 126.207C230.458 128.076 228.934 130.651 227.092 133.702C224.414 138.14 221.073 143.573 217.559 149.286C216.243 151.426 214.902 153.605 213.564 155.786C208.654 163.786 203.766 171.807 200.186 177.978C198.396 181.062 196.928 183.691 195.946 185.628C195.456 186.594 195.081 187.4 194.848 188.008C194.842 188.025 194.836 188.041 194.829 188.057C192.487 184.694 185.355 174.464 181.16 168.447L196.792 121.134L219.597 99.7802Z" fill="black" stroke="white"/>
<path d="M189.545 22.3327C189.549 22.3292 189.553 22.3257 189.557 22.3221V25.0125H189.3C189.304 24.5524 189.316 24.0097 189.338 23.5246C189.354 23.1845 189.374 22.8814 189.4 22.6575C189.411 22.5623 189.422 22.4896 189.432 22.4384C189.462 22.4101 189.5 22.3747 189.545 22.3327ZM194.315 17.9646C194.338 17.9433 194.361 17.9222 194.384 17.9015L194.547 17.7528V17.5322V12.3532L196.319 6.25023L202.93 5.86131L204.029 6.6458L203.635 12.1503C203.077 13.2996 202.233 14.9742 201.463 16.3724C201.068 17.0908 200.698 17.7264 200.399 18.1786C200.248 18.4065 200.125 18.5738 200.032 18.679C200.019 18.6932 200.008 18.7053 199.999 18.7155C199.887 18.7195 199.738 18.7269 199.564 18.7354C199.394 18.7438 199.201 18.7533 198.997 18.762C198.46 18.7848 197.809 18.804 197.181 18.7912C196.546 18.7782 195.965 18.7328 195.555 18.6369C195.357 18.5905 195.236 18.5404 195.173 18.5011C195.161 18.389 195.121 18.2487 195.009 18.1271C194.859 17.9654 194.667 17.9297 194.535 17.9314C194.461 17.9323 194.387 17.9449 194.315 17.9646ZM199.95 18.7617C199.943 18.7673 199.944 18.7654 199.953 18.7598C199.952 18.7606 199.951 18.7612 199.95 18.7617Z" fill="#1C1C1C" stroke="white"/>
<path d="M152.651 24.7526H153.848C154.109 24.7526 154.327 24.9543 154.346 25.2152L154.867 32.1529H152.323L152.151 25.2651C152.144 24.9841 152.37 24.7526 152.651 24.7526Z" fill="black" stroke="white"/>
<path d="M144.982 41.8348L144.981 41.8254L144.979 41.816L143.967 35.3361C144.34 34.9429 144.858 34.4377 145.362 34.0279C145.655 33.79 145.928 33.597 146.154 33.4754C146.267 33.4147 146.355 33.3793 146.419 33.3622C146.451 33.3534 146.47 33.3515 146.477 33.351C146.624 33.3853 146.839 33.3966 147.055 33.4015C147.297 33.4071 147.603 33.4052 147.953 33.3975C148.653 33.3823 149.55 33.3439 150.512 33.2939C152.437 33.194 154.635 33.0467 156.072 32.9415L156.08 32.9409L156.088 32.9401L163.453 32.1566C164.496 32.0456 165.406 32.8635 165.406 33.9129V34.2371L165.702 34.3694C167.341 35.1016 169.883 36.2942 172.18 37.4907C173.329 38.0892 174.411 38.6855 175.285 39.2234C176.177 39.7719 176.801 40.229 177.083 40.5453C177.334 40.8285 177.549 41.3251 177.707 42.0156C177.861 42.693 177.948 43.4993 177.986 44.3463C178.054 45.8727 177.96 47.4847 177.84 48.6189L167.434 50.8201C165.226 49.8057 161.966 48.3522 159.171 47.2008C157.743 46.6125 156.428 46.0996 155.433 45.7646C154.938 45.5978 154.508 45.4701 154.178 45.4007C154.015 45.3664 153.855 45.3418 153.714 45.3394C153.644 45.3382 153.561 45.342 153.476 45.3615C153.405 45.3776 153.3 45.4119 153.203 45.4925C153.203 45.4925 153.203 45.4926 153.203 45.4926C153.172 45.5032 153.117 45.5171 153.032 45.5304C152.863 45.5571 152.624 45.574 152.322 45.5797C151.721 45.5908 150.928 45.5566 150.054 45.4948C148.472 45.383 146.666 45.1835 145.356 45.0174L144.982 41.8348ZM153.221 45.4856C153.221 45.4856 153.22 45.4862 153.217 45.4873C153.219 45.4861 153.22 45.4855 153.221 45.4856Z" fill="#979797" stroke="white"/>
<path d="M180.907 42.3724L178.155 40.1365C179.052 39.0105 180.289 37.5095 181.41 36.2571C182.038 35.5547 182.621 34.9402 183.083 34.5151C183.316 34.301 183.504 34.1477 183.643 34.0559C183.685 34.0284 183.716 34.0101 183.739 33.9984C183.905 34.0227 184.071 34.0092 184.217 33.9857C184.398 33.9565 184.591 33.9045 184.781 33.8466C184.946 33.7965 185.105 33.7443 185.265 33.6913C185.508 33.6113 185.756 33.5293 186.043 33.4496C186.954 33.1966 187.903 33.0802 188.783 33.5201C189.495 33.8758 190.239 34.7371 190.896 35.7587C191.408 36.5531 191.835 37.3925 192.125 38.0426L180.907 42.3724ZM183.78 33.9802C183.78 33.9803 183.778 33.981 183.774 33.982C183.778 33.9805 183.78 33.98 183.78 33.9802Z" fill="#979797" stroke="white"/>
<path d="M126.851 40.6368C126.521 39.9287 126.598 38.741 128.522 36.9228L144.401 36.0979C144.418 36.1116 144.443 36.1351 144.475 36.1747C144.554 36.2702 144.641 36.4199 144.727 36.624C144.897 37.0305 145.027 37.5803 145.074 38.1484C145.12 38.7197 145.078 39.2666 144.939 39.6797C144.8 40.0912 144.595 40.2949 144.354 40.3607C143.475 40.6002 140.775 40.9637 137.696 41.323C134.682 41.6749 131.362 42.0166 129.192 42.2272C128.748 42.1122 128.263 41.9234 127.84 41.6606C127.389 41.3806 127.038 41.0359 126.851 40.6368Z" fill="#161616" stroke="white"/>
<path d="M91.9033 164.958C91.9033 188.637 75.0501 207.719 54.392 207.719C33.7338 207.719 16.8806 188.637 16.8806 164.958C16.8806 141.278 33.7338 122.196 54.392 122.196C75.0501 122.196 91.9033 141.278 91.9033 164.958Z" fill="#1C1C1C" stroke="white"/>
<path d="M77.2027 166.008C77.2027 181.419 65.4573 193.859 51.0318 193.859C36.6063 193.859 24.8608 181.419 24.8608 166.008C24.8608 150.597 36.6063 138.157 51.0318 138.157C65.4573 138.157 77.2027 150.597 77.2027 166.008Z" fill="#8D8D8D" stroke="white"/>
<circle cx="50.4018" cy="169.158" r="7.9003" fill="#D9D9D9" stroke="white"/>
<path d="M0.5 117.156H2.24521C2.56308 117.584 3.14735 118.059 4.01517 118.464C5.0923 118.966 6.64711 119.379 8.80033 119.466C10.8064 119.546 13.5196 120.408 16.1376 121.486C18.7094 122.546 21.1303 123.789 22.5901 124.62L44.588 145.571L57.5105 159.118L60.7795 171.786C60.021 172.766 57.8538 174.538 54.392 174.538C51.9737 174.538 48.2203 174.538 44.7081 174.147C42.9518 173.952 41.2727 173.661 39.8601 173.231C38.4359 172.797 37.3423 172.238 36.6968 171.547C36.4539 171.286 36.0042 170.808 35.3834 170.147C32.2396 166.803 24.7085 158.79 17.4325 150.813C13.0759 146.036 8.81494 141.277 5.64445 137.543C4.05842 135.675 2.75063 134.07 1.84135 132.851C1.38596 132.24 1.03724 131.735 0.804558 131.347C0.687969 131.152 0.606229 130.997 0.555105 130.878C0.507409 130.767 0.50096 130.721 0.500118 130.721C0.500041 130.721 0.500011 130.722 0.5 130.723V117.156Z" fill="#6E6E6E" stroke="white"/>
<path d="M210.772 71.6198L202.713 73.685L196.127 87.0051L213.115 100.227L239.808 106.334L238.289 99.1189L238.289 99.1183L236.496 90.6502L227.604 81.5276L210.772 71.6198Z" fill="white" stroke="white"/>
<path d="M187.761 170.679C191.13 176.176 194.75 182.796 197.261 187.644C194.788 187.977 190.823 188.94 187.156 190.004C185.122 190.594 183.166 191.219 181.588 191.794C180.799 192.081 180.1 192.357 179.531 192.612C178.971 192.862 178.506 193.104 178.206 193.329C178.031 193.46 177.643 193.635 177.01 193.824C176.394 194.006 175.597 194.188 174.648 194.354C172.752 194.688 170.277 194.959 167.489 195.077C161.909 195.313 155.121 194.936 149.243 193.248C146.039 192.328 142.586 191.383 139.036 190.412C134.707 189.228 130.233 188.004 125.89 186.737C118.005 184.437 110.679 182.03 105.724 179.553C103.554 178.468 100.379 175.656 96.8527 172.146C92.9219 168.233 91.3287 164.589 90.5324 161.774C90.2179 160.663 90.0283 159.685 89.8658 158.846C89.8208 158.614 89.778 158.393 89.7351 158.183C89.6378 157.706 89.5376 157.27 89.4086 156.909C89.2814 156.552 89.1068 156.209 88.8254 155.968C88.7143 155.872 88.6788 155.793 88.6659 155.729C88.6513 155.655 88.656 155.545 88.7149 155.379C88.8393 155.028 89.1434 154.59 89.584 154.032C89.7112 153.871 89.8485 153.702 89.9917 153.525C90.7881 152.544 91.7689 151.336 92.2441 150.005C92.7234 148.663 93.2863 147.983 93.7661 147.403C93.7817 147.384 93.7972 147.365 93.8125 147.347C94.0584 147.049 94.3119 146.738 94.4954 146.367C94.6858 145.982 94.7933 145.551 94.7933 145.007C94.7933 144.327 94.3395 143.651 93.7609 143.039C93.1594 142.403 92.3208 141.731 91.3508 141.053C89.4077 139.696 86.8648 138.266 84.4443 137.003C81.4102 135.42 80.2947 133.412 79.9835 132.233C92.082 135.288 109.864 140.08 124.815 144.765C132.443 147.155 139.322 149.513 144.331 151.596C146.838 152.639 148.859 153.605 150.267 154.464C150.972 154.894 151.506 155.287 151.867 155.637C152.241 155.999 152.37 156.257 152.39 156.411C152.578 157.875 153.427 159.106 154.604 160.124C155.78 161.14 157.316 161.974 158.959 162.648C162.247 163.997 166.064 164.751 168.58 165.034L169.024 165.085L169.124 164.648C169.824 161.569 171.516 154.325 172.689 149.967C172.776 149.645 172.86 149.429 172.934 149.294C172.946 149.272 172.957 149.254 172.967 149.239C173.01 149.28 173.066 149.343 173.135 149.437C173.361 149.745 173.62 150.245 173.913 150.898C174.203 151.544 174.511 152.306 174.84 153.122L174.875 153.207C175.518 154.804 176.241 156.596 177.027 157.996C177.427 158.709 177.858 159.348 178.324 159.815C178.785 160.277 179.339 160.627 179.976 160.627C180.03 160.627 180.147 160.652 180.343 160.766C180.534 160.876 180.762 161.05 181.028 161.294C181.558 161.781 182.189 162.502 182.899 163.419C184.316 165.251 186 167.805 187.761 170.679Z" fill="#2D2D31" stroke="white"/>
<circle cx="241.509" cy="186.378" r="46.1217" fill="#1C1C1C" stroke="white"/>
<circle cx="238.989" cy="185.538" r="27.641" fill="#8D8D8D" stroke="white"/>
<path d="M37.8471 100.457L37.9227 100.264L37.8388 100.073L35.323 94.3708L57.4558 107.613L52.8171 108.607L52.6494 108.643L52.5391 108.774L43.7379 119.252L30.6585 131.514L23.1128 124.548C24.2307 122.746 25.8609 120.223 27.3722 118.101C28.1793 116.968 28.9449 115.96 29.5763 115.24C29.8932 114.878 30.1651 114.602 30.3835 114.42C30.4928 114.329 30.5774 114.271 30.638 114.238C30.6622 114.225 30.6779 114.218 30.6861 114.215C30.9007 114.208 31.079 114.109 31.203 114.02C31.3397 113.922 31.4705 113.792 31.5938 113.649C31.8411 113.364 32.1098 112.968 32.3894 112.504C32.9513 111.571 33.5992 110.293 34.2586 108.888C35.5792 106.074 36.9697 102.703 37.8471 100.457Z" fill="#191919" stroke="white"/>
<path d="M238.417 83.5079L242.002 84.9252L246.04 91.9914L245.032 106.495L240.152 106.495L237.584 97.8433L236.144 90.8499L238.417 83.5079Z" fill="#424242" stroke="white"/>
<path d="M250.669 98.3667L244.899 106.298L244.899 98.5294L244.899 92.7149L244.899 92.6688L244.89 92.6235L243.264 83.8801L246.02 81.5663L250.669 92.8142L250.669 98.3667Z" fill="white" stroke="white"/>
<path d="M220.249 155.726L204.37 117.394L210.524 115.195L225.575 157.303L220.249 155.726Z" fill="#3D3D3D" stroke="white"/>
<rect x="215.267" y="105.144" width="5.07991" height="36.155" transform="rotate(-19.6684 215.267 105.144)" fill="#3D3D3D" stroke="white"/>
<path d="M239.163 131.855L239.312 131.866L239.443 131.793C241.498 130.643 244.695 128.982 247.602 127.737C249.057 127.113 250.424 126.6 251.532 126.305C252.087 126.158 252.56 126.069 252.939 126.045C253.331 126.019 253.554 126.068 253.66 126.125C253.899 126.255 254.435 126.656 255.224 127.308C255.998 127.948 256.98 128.802 258.092 129.808C260.316 131.819 263.051 134.43 265.667 137.138C268.286 139.848 270.775 142.645 272.514 145.029C273.384 146.223 274.054 147.296 274.461 148.193C274.881 149.119 274.965 149.741 274.846 150.099C274.771 150.323 274.472 150.579 273.537 150.627C272.653 150.672 271.42 150.512 269.92 150.185C266.93 149.533 263.024 148.25 259.02 146.82C256.577 145.947 254.115 145.026 251.812 144.164C250.339 143.613 248.93 143.086 247.633 142.611C245.977 142.005 244.504 141.486 243.325 141.117C242.736 140.933 242.213 140.785 241.775 140.682C241.345 140.581 240.963 140.517 240.669 140.517C236.986 140.517 233.339 142.255 232.415 145.718L232.396 145.79L232.399 145.865C232.539 149.719 232.812 155.522 233.177 160.406C233.359 162.847 233.565 165.067 233.789 166.702C233.901 167.517 234.019 168.201 234.146 168.699C234.156 168.74 234.167 168.781 234.177 168.821C233.774 168.759 233.269 168.677 232.704 168.581C231.093 168.308 229.024 167.932 227.531 167.655C224.63 163.177 220.397 156.472 216.975 150.675C215.239 147.736 213.717 145.038 212.682 142.985C212.164 141.957 211.774 141.103 211.541 140.467C211.424 140.148 211.353 139.901 211.322 139.723C211.306 139.635 211.303 139.577 211.304 139.545C212.042 138.22 212.94 136.8 213.418 136.069C214.264 136.113 215.396 136.214 216.349 136.39C216.884 136.488 217.333 136.605 217.637 136.735C217.791 136.801 217.877 136.857 217.918 136.894C217.929 136.904 217.933 136.909 217.933 136.909C217.933 136.909 217.908 136.878 217.908 136.817H218.408H218.908V130.423L239.163 131.855ZM211.305 139.527C211.305 139.527 211.305 139.528 211.305 139.529L211.305 139.527Z" fill="#D3D3D3" stroke="white"/>
<path d="M186.029 90.2899L159.561 53.5779L198.901 39.5653L220.532 102.57L209.598 108.931L196.251 100.512L186.029 90.2899Z" fill="#D3D3D3" stroke="white"/>
<path d="M45.6764 68.179L38.0813 70.3942L37.1213 70.6742L37.9213 71.2742L47.9465 78.7931L50.02 81.5046H44.0373C41.7347 80.0355 38.3409 77.7654 35.4863 75.6296C34.032 74.5415 32.7282 73.4961 31.7816 72.6138C31.3075 72.1718 30.9341 71.7811 30.678 71.4541C30.4042 71.1046 30.3258 70.9034 30.319 70.829C30.218 69.7177 30.3271 68.5618 30.7171 67.7588C30.9085 67.3648 31.1556 67.0793 31.456 66.9087C31.7511 66.741 32.1434 66.658 32.6789 66.7473C34.3698 67.0291 40.9963 67.7145 45.6764 68.179Z" fill="#292929" stroke="white"/>
<path d="M234.565 89.2982L172.418 43.3094L211.592 29.356L246.232 87.1384L245.517 90.8912L234.565 89.2982Z" fill="#2A2A2A" stroke="white"/>
<path d="M233.548 81.516L183.453 27.0735L214.588 20.1998L247.249 76.9934L244.972 82.1172L233.548 81.516Z" fill="#BDBDBD" stroke="white"/>
<path d="M118.529 119.58L118.734 119.43V119.176V115.448L136.969 121.196C136.391 123.795 135.37 127.519 134.067 130.766C133.377 132.485 132.615 134.051 131.809 135.241C130.99 136.452 130.185 137.182 129.443 137.384C129.22 137.445 129.019 137.557 128.861 137.731C128.705 137.904 128.615 138.111 128.571 138.325C128.486 138.734 128.56 139.216 128.702 139.711C128.991 140.713 129.646 142.033 130.495 143.528C131.615 145.499 133.122 147.855 134.694 150.314C135.512 151.594 136.348 152.901 137.157 154.197C139.538 158.012 141.675 161.714 142.535 164.42C142.972 165.793 143.036 166.781 142.774 167.385C142.653 167.665 142.456 167.877 142.149 168.022C141.83 168.174 141.371 168.262 140.724 168.238C135.21 168.03 126.341 166.518 118.679 163.521C114.849 162.022 111.347 160.163 108.72 157.932C106.095 155.701 104.378 153.129 104.03 150.198C103.435 145.183 102.104 141.564 100.664 139.071C99.5157 137.082 98.2874 135.793 97.2965 135.096L118.529 119.58Z" fill="#2D2D31" stroke="white"/>
<path d="M179.479 79.8482L218.534 102.954L198.884 131.704L198.86 131.739L198.843 131.778L182.998 166.348L174.945 156.919L168.307 141.776L170.181 123.034L179.479 79.8482Z" fill="#D3D3D3" stroke="white"/>
<path d="M137.965 121.028L137.918 121.007L137.868 120.997C136.067 120.619 133.549 120.472 130.819 120.416C128.881 120.376 126.813 120.382 124.792 120.389C123.959 120.391 123.134 120.394 122.33 120.393C119.562 120.39 117.042 120.349 115.219 120.145C114.302 120.042 113.6 119.901 113.139 119.722C112.909 119.632 112.773 119.545 112.702 119.476C112.643 119.42 112.644 119.393 112.644 119.387L112.644 119.386C112.644 119.101 112.48 118.848 112.343 118.671C112.187 118.471 111.97 118.253 111.71 118.021C111.187 117.557 110.434 116.991 109.495 116.344C107.613 115.049 104.934 113.397 101.731 111.538C95.321 107.817 86.7798 103.244 78.2409 98.9877C69.704 94.7325 61.1559 90.7866 54.7351 88.3236C51.5305 87.0944 48.8283 86.2237 46.9138 85.8753C45.967 85.703 45.1534 85.6465 44.5536 85.7747C44.3231 85.8239 44.0988 85.9057 43.9073 86.0386C43.7861 85.2426 43.6457 84.2468 43.4911 83.1507C43.4578 82.9142 43.4237 82.673 43.3891 82.4281C43.1005 80.3866 42.7712 78.1026 42.4348 76.1963C42.2667 75.2436 42.0956 74.3781 41.9253 73.6808C41.8107 73.2115 41.6896 72.787 41.5585 72.4587L45.0039 69.2047L48.5811 67.8136L98.3191 72.8292C101.203 74.7584 105.656 77.5314 109.782 79.6711C111.869 80.7531 113.887 81.6811 115.584 82.2545C116.432 82.541 117.216 82.7443 117.896 82.8304C118.566 82.9149 119.196 82.8943 119.697 82.6715C120.37 82.3726 121.528 82.1561 123.01 82.0512C124.477 81.9475 126.21 81.9561 127.997 82.0782C131.567 82.3221 135.272 83.0128 137.496 84.1095C141.814 87.5234 147.285 95.3372 151.106 102.849C153.019 106.609 154.499 110.257 155.211 113.199C155.567 114.671 155.724 115.941 155.66 116.947C155.595 117.959 155.312 118.627 154.87 119.006C152.632 120.925 149.359 121.852 146.125 122.079C142.891 122.306 139.795 121.826 137.965 121.028Z" fill="#191919" stroke="white"/>
<path d="M41.8235 82.2619L41.9168 82.2974L42.0167 82.2944C43.1869 82.2589 45.0149 82.1316 46.7053 81.8632C47.5499 81.7291 48.3729 81.5578 49.0673 81.3406C49.6729 81.1511 50.2414 80.9089 50.6299 80.5828C50.7049 80.5952 50.8149 80.6213 50.9657 80.6671C51.3326 80.7787 51.8585 80.9817 52.5365 81.2742C53.8878 81.8572 55.788 82.7716 58.1147 83.9466C62.7653 86.2953 69.0888 89.6694 76.0669 93.4743C89.9152 101.025 106.325 110.264 117.314 116.526V120.848L99.588 137.338C95.5798 136.748 88.9779 134.987 84.1813 133.218C81.7155 132.309 79.8062 131.425 78.9491 130.729C78.7379 130.558 78.6283 130.427 78.5819 130.342C78.5769 130.333 78.5731 130.325 78.5702 130.319C78.5954 130.296 78.6525 130.252 78.772 130.199C78.9628 130.113 79.2549 130.03 79.6751 129.96C80.2974 129.856 80.8359 129.592 81.0667 129.049C81.2854 128.536 81.1455 127.952 80.891 127.411C80.3745 126.313 79.1484 124.899 77.4917 123.305C74.1512 120.09 68.8379 115.938 63.1391 111.789C57.4348 107.636 51.3245 103.47 46.3775 100.225C43.9039 98.602 41.7194 97.2081 40.0204 96.1599C38.3344 95.1197 37.0972 94.4015 36.5365 94.1491C35.8233 93.8282 34.9434 92.9599 33.9696 91.6507C33.0114 90.3626 32.0134 88.7196 31.0477 86.9473C29.1676 83.4971 27.4333 79.601 26.3788 76.987C26.5867 76.602 26.9377 76.1107 27.3999 75.7268C27.935 75.2825 28.5772 75.0128 29.3116 75.1463C30.4869 75.36 31.5795 75.5614 32.3316 75.8768C32.7072 76.0343 32.9345 76.1956 33.0501 76.3465C33.143 76.4677 33.1841 76.6045 33.1204 76.8271C33.0158 77.1934 33.1737 77.525 33.3389 77.7553C33.5118 77.9961 33.7652 78.2304 34.0521 78.4529C34.6304 78.9014 35.4472 79.3799 36.3426 79.8444C38.1402 80.7769 40.3434 81.698 41.8235 82.2619ZM78.5613 130.295C78.5613 130.295 78.5616 130.296 78.5618 130.298C78.5613 130.296 78.5612 130.295 78.5613 130.295Z" fill="#D3D3D3" stroke="white"/>
<path d="M133.856 131.193C135.676 127.903 137.22 124.019 137.36 120.898L153.215 119.281C153.519 119.694 153.91 120.33 154.229 121.083C154.607 121.98 154.866 123.004 154.784 123.993C154.729 124.643 154.492 125.89 154.156 127.52C154.017 128.191 153.862 128.926 153.698 129.703C153.469 130.789 153.222 131.957 152.979 133.147C152.148 137.226 151.329 141.713 151.329 144.518C151.329 147.301 151.852 152.503 152.544 157.026C152.89 159.289 153.281 161.398 153.675 162.962C153.871 163.74 154.073 164.402 154.276 164.884C154.36 165.081 154.45 165.264 154.549 165.416C154.359 165.499 154.12 165.595 153.835 165.7C152.794 166.086 151.245 166.569 149.584 166.994C147.922 167.419 146.166 167.781 144.708 167.933C143.977 168.01 143.338 168.031 142.829 167.988C142.301 167.942 141.999 167.832 141.861 167.72C141.783 167.656 141.637 167.496 141.42 167.207C141.211 166.929 140.959 166.562 140.67 166.116C140.092 165.225 139.378 164.036 138.584 162.646C136.997 159.867 135.101 156.301 133.356 152.74C131.61 149.177 130.021 145.634 129.042 142.898C128.551 141.526 128.222 140.381 128.098 139.548C128.035 139.128 128.029 138.821 128.063 138.617C128.088 138.468 128.124 138.421 128.134 138.411C128.922 137.987 129.881 137.018 130.855 135.78C131.845 134.522 132.895 132.928 133.856 131.193ZM128.137 138.408C128.137 138.408 128.136 138.409 128.134 138.41C128.136 138.409 128.137 138.408 128.137 138.408Z" fill="#1A1A1A" stroke="white"/>
<circle cx="140.285" cy="43.5732" r="1.18006" fill="#D9D9D9" stroke="white"/>
<path d="M141.706 42.4456L141.649 42.4511C141.647 42.4377 141.645 42.424 141.643 42.4099C141.667 42.3965 141.696 42.3817 141.73 42.3657C141.952 42.2626 142.314 42.1522 142.818 42.0412C143.816 41.8215 145.253 41.6242 146.946 41.4494C150.327 41.1003 154.661 40.8471 158.391 40.672C159.188 40.6345 159.934 40.8701 160.54 41.2965C160.433 41.2845 160.315 41.2754 160.189 41.2684C159.775 41.2457 159.216 41.2432 158.553 41.2561C157.225 41.2819 155.44 41.3703 153.479 41.4939C149.554 41.741 144.896 42.13 141.706 42.4456ZM161.659 43.1851C161.67 42.9842 161.668 42.7779 161.647 42.5782C161.863 43.0058 161.994 43.4853 162.017 43.9953L162.516 43.9726L162.017 43.9953L162.023 44.1232H161.527C161.594 43.8241 161.642 43.5001 161.659 43.1851Z" fill="#D9D9D9" stroke="white"/>
<path d="M152.986 24.1321C153.011 23.6292 153.028 23.0001 153.013 22.4377C153.003 22.0858 152.98 21.7422 152.933 21.4669C152.91 21.331 152.877 21.1906 152.828 21.0673C152.79 20.9694 152.696 20.7636 152.479 20.6552C152.484 20.6578 152.487 20.6592 152.487 20.659C152.488 20.6582 152.456 20.6377 152.372 20.5749C152.282 20.5083 152.16 20.4147 152.009 20.2966C151.706 20.061 151.296 19.7352 150.811 19.3496C150.557 19.1471 150.283 18.9284 149.995 18.698C149.185 18.0521 148.261 17.3148 147.341 16.5886C147.062 16.368 146.783 16.1482 146.507 15.932C146.798 16.1508 147.093 16.3721 147.388 16.5935C147.626 16.772 147.864 16.9506 148.101 17.1282C149.276 18.0092 150.417 18.8646 151.322 19.5543C151.866 19.9688 152.322 20.3209 152.646 20.5814C152.809 20.7122 152.935 20.8163 153.021 20.892C153.038 20.9069 153.053 20.92 153.065 20.9314C153.067 20.9423 153.069 20.955 153.07 20.9698C153.081 21.0565 153.09 21.1755 153.097 21.3247C153.109 21.6217 153.111 22.0071 153.105 22.4288C153.097 22.9981 153.075 23.621 153.051 24.1582L152.986 24.1321ZM153.122 20.9868C153.122 20.9869 153.119 20.9844 153.116 20.9797C153.12 20.9845 153.122 20.9868 153.122 20.9868ZM142.271 12.6664C142.564 12.9137 142.988 13.2499 143.495 13.6433C143.192 13.4267 142.927 13.2456 142.716 13.113C142.568 13.0209 142.427 12.9397 142.308 12.8885C142.254 12.8654 142.167 12.8313 142.069 12.8201C142.01 12.8135 141.739 12.7956 141.57 13.0229C141.565 13.0267 141.559 13.031 141.552 13.0358C141.5 13.072 141.419 13.1227 141.304 13.1873C141.078 13.3155 140.755 13.4806 140.362 13.6684C139.576 14.0433 138.532 14.4976 137.454 14.9132C136.373 15.3297 135.274 15.7016 134.377 15.9173C133.926 16.0255 133.543 16.0902 133.247 16.106C133.1 16.1138 132.986 16.1088 132.903 16.0959C132.825 16.0837 132.795 16.0679 132.792 16.0662C132.792 16.0661 132.792 16.066 132.792 16.0662C132.174 15.6544 129.822 13.9819 127.572 12.2289C126.447 11.3525 125.356 10.4625 124.523 9.70408C124.106 9.32428 123.762 8.98469 123.513 8.70126C123.245 8.39708 123.144 8.21902 123.125 8.15458C122.922 7.44198 122.505 5.62354 122.219 3.90459C122.076 3.04502 121.967 2.22604 121.933 1.59045C121.915 1.27098 121.918 1.01506 121.938 0.830664C121.944 0.775372 121.952 0.731531 121.959 0.697722C121.965 0.696398 121.971 0.695044 121.977 0.693661C122.09 0.66835 122.257 0.643246 122.478 0.620293C122.916 0.574663 123.521 0.542272 124.243 0.522712C125.684 0.483668 127.558 0.496601 129.429 0.548951C131.301 0.6013 133.162 0.692824 134.577 0.809952C135.286 0.868644 135.874 0.933025 136.293 1.00052C136.504 1.03456 136.658 1.06724 136.759 1.09641C136.766 1.09863 136.773 1.10075 136.78 1.10275C137.099 1.59885 138.208 3.3902 139.276 5.21109C139.852 6.19324 140.412 7.17656 140.827 7.96387C141.035 8.35833 141.202 8.69656 141.317 8.95749C141.374 9.08835 141.415 9.19234 141.44 9.2699C141.459 9.32586 141.464 9.35237 141.465 9.35707C141.467 9.75846 141.551 10.2739 141.621 10.7055C141.633 10.7784 141.644 10.849 141.655 10.9163C141.695 11.1673 141.723 11.3735 141.732 11.5251C141.734 11.5693 141.734 11.6018 141.734 11.6244C141.636 11.8 141.681 11.9772 141.697 12.0298C141.723 12.1099 141.763 12.1684 141.78 12.1931C141.821 12.2507 141.871 12.3041 141.912 12.3446C141.999 12.4319 142.124 12.542 142.271 12.6664ZM121.981 0.621842C121.981 0.621869 121.981 0.622535 121.98 0.623762C121.981 0.622429 121.981 0.621816 121.981 0.621842ZM121.871 0.72296C121.868 0.724681 121.866 0.725461 121.865 0.72542C121.865 0.725379 121.867 0.724518 121.871 0.72296ZM136.837 1.12325C136.843 1.12618 136.841 1.12596 136.834 1.12192C136.836 1.12251 136.837 1.12296 136.837 1.12325ZM141.731 11.6591C141.729 11.6708 141.729 11.6689 141.731 11.6578C141.731 11.6583 141.731 11.6587 141.731 11.6591Z" fill="#1C1C1C" stroke="white"/>
<circle cx="237.729" cy="185.958" r="7.9003" fill="#D9D9D9" stroke="white"/>
</svg>
