<svg width="16" height="20" viewBox="0 0 16 20" fill="none" xmlns="http://www.w3.org/2000/svg">
<path d="M2.86567 0.957831C2.86567 0.704978 3.07951 0.5 3.34328 0.5H12.6567C12.9205 0.5 13.1343 0.704978 13.1343 0.957831V2.56024C13.1343 2.81309 12.9205 3.01807 12.6567 3.01807H3.34328C3.07951 3.01807 2.86567 2.81309 2.86567 2.56024V0.957831Z" fill="white"/>
<path d="M0 13.4337C0 13.1809 0.213834 12.9759 0.477612 12.9759H15.5224C15.7862 12.9759 16 13.1809 16 13.4337V16.4096C16 16.6625 15.7862 16.8675 15.5224 16.8675H0.477612C0.213834 16.8675 0 16.6625 0 16.4096V13.4337Z" fill="white"/>
<path d="M8.23881 17.3253C8.23881 17.2621 8.29226 17.2108 8.35821 17.2108H13.3731C13.6369 17.2108 13.8507 17.4158 13.8507 17.6687V19.0422C13.8507 19.295 13.6369 19.5 13.3731 19.5H8.35821C8.29226 19.5 8.23881 19.4488 8.23881 19.3855V17.3253Z" fill="white"/>
<path d="M6.56716 17.3253C6.56716 17.2621 6.62062 17.2108 6.68657 17.2108H7.8806C7.94654 17.2108 8 17.2621 8 17.3253V19.3855C8 19.4488 7.94654 19.5 7.8806 19.5H6.68657C6.62062 19.5 6.56716 19.4488 6.56716 19.3855V17.3253Z" fill="white"/>
<path d="M4.89552 17.3253C4.89552 17.2621 4.94898 17.2108 5.01493 17.2108H6.20896C6.2749 17.2108 6.32836 17.2621 6.32836 17.3253V19.3855C6.32836 19.4488 6.2749 19.5 6.20896 19.5H5.01493C4.94898 19.5 4.89552 19.4488 4.89552 19.3855V17.3253Z" fill="white"/>
<path d="M4.65672 18.3554C4.65672 18.9876 4.12213 19.5 3.46269 19.5C2.80324 19.5 2.26866 18.9876 2.26866 18.3554C2.26866 17.7233 2.80324 17.2108 3.46269 17.2108C4.12213 17.2108 4.65672 17.7233 4.65672 18.3554Z" fill="white"/>
<path d="M3.08763 2.44578L4.26166 2.65437L2.12924 13.6834L0.9552 13.4748L3.08763 2.44578Z" fill="white"/>
<path d="M4.53527 2.44578L5.72708 2.51566L5.01272 13.7116L3.82091 13.6417L4.53527 2.44578Z" fill="white"/>
<path d="M6.44776 2.44578H7.64179V13.6627H6.44776V2.44578Z" fill="white"/>
<path d="M12.9124 2.44578L11.7383 2.65437L13.8708 13.6834L15.0448 13.4748L12.9124 2.44578Z" fill="white"/>
<path d="M11.4647 2.44578L10.2729 2.51566L10.9873 13.7116L12.1791 13.6417L11.4647 2.44578Z" fill="white"/>
<path d="M9.55224 2.44578H8.35821V13.6627H9.55224V2.44578Z" fill="white"/>
</svg>
