<svg width="651" height="530" viewBox="0 0 651 530" fill="none" xmlns="http://www.w3.org/2000/svg">
<path d="M136.555 118H119.755V64.12L79.7955 116.32C77.8755 118.72 75.3555 119.8 71.7555 119.8C68.1555 119.8 65.6355 118.72 63.7155 116.32L23.8755 64.12V118H7.31547V41.8C7.31547 36.64 11.5155 34.36 17.1555 34.36C21.4755 34.36 23.7555 35.44 25.7955 38.2L71.9955 99.52L118.555 38.2C120.595 35.56 122.515 34.36 126.715 34.36C132.235 34.36 136.555 36.64 136.555 41.8V118ZM211.793 118H180.713C156.593 118 149.513 110.56 149.513 89.92V64.24C149.513 43.6 156.593 36.16 180.713 36.16H211.793C236.033 36.16 243.113 43.6 243.113 64.24V89.92C243.113 110.56 236.033 118 211.793 118ZM224.873 89.2V65.08C224.873 54.88 221.753 51.88 211.073 51.88H181.553C170.033 51.88 167.633 54.88 167.633 65.08V89.2C167.633 99.88 170.033 102.4 181.553 102.4H211.073C221.753 102.4 224.873 99.88 224.873 89.2ZM304.109 118H285.749V51.88H251.429V36.16H338.429V51.88H304.109V118ZM409.141 118H378.061C353.941 118 346.861 110.56 346.861 89.92V64.24C346.861 43.6 353.941 36.16 378.061 36.16H409.141C433.381 36.16 440.461 43.6 440.461 64.24V89.92C440.461 110.56 433.381 118 409.141 118ZM422.221 89.2V65.08C422.221 54.88 419.101 51.88 408.421 51.88H378.901C367.381 51.88 364.981 54.88 364.981 65.08V89.2C364.981 99.88 367.381 102.4 378.901 102.4H408.421C419.101 102.4 422.221 99.88 422.221 89.2Z" fill="white"/>
<path d="M650.355 337C650.355 443.591 563.946 530 457.355 530C350.765 530 264.355 443.591 264.355 337C264.355 230.409 350.765 144 457.355 144C563.946 144 650.355 230.409 650.355 337ZM321.966 337C321.966 411.774 382.582 472.389 457.355 472.389C532.129 472.389 592.745 411.774 592.745 337C592.745 262.226 532.129 201.611 457.355 201.611C382.582 201.611 321.966 262.226 321.966 337Z" fill="#424A4A"/>
<path d="M457.355 172.806C457.355 156.897 470.323 143.78 486.055 146.146C510.972 149.893 535.01 158.498 556.767 171.572C586.789 189.614 611.335 215.484 627.775 246.412C644.215 277.339 651.928 312.157 650.089 347.134C648.25 382.112 636.927 415.929 617.335 444.961C597.742 473.994 570.618 497.148 538.87 511.941C507.122 526.734 471.947 532.609 437.114 528.936C402.282 525.262 369.106 512.179 341.142 491.089C320.877 475.805 303.902 456.733 291.104 435.027C283.023 421.323 290.335 404.39 305.088 398.437V398.437C319.842 392.485 336.396 399.866 345.33 413.029C353.634 425.264 363.923 436.111 375.832 445.093C395.449 459.888 418.722 469.065 443.156 471.642C467.591 474.219 492.266 470.098 514.538 459.721C536.809 449.343 555.836 433.101 569.58 412.735C583.325 392.368 591.267 368.646 592.558 344.109C593.848 319.573 588.437 295.148 576.904 273.453C565.372 251.757 548.153 233.609 527.093 220.953C514.307 213.27 500.398 207.786 485.945 204.664C470.394 201.305 457.355 188.714 457.355 172.806V172.806Z" fill="url(#paint0_linear_2718_4783)"/>
<path d="M418.355 473.493C418.355 482.229 412.964 490.059 404.802 493.175C395.828 496.601 385.898 496.561 376.952 493.06L376.603 492.924C369.013 489.954 364.019 482.637 364.019 474.487V275.483L234.777 444.718C228.567 452.499 220.416 456 208.773 456C197.13 456 188.979 452.499 182.769 444.718L53.9151 275.483V450.164C53.9151 450.164 59.4148 462.164 27.1351 462.164C-5.14453 462.164 0.355186 450.164 0.355186 450.164V203.121C0.355186 186.392 13.9392 179 32.1806 179C46.1528 179 53.527 182.501 60.1249 191.449L209.549 390.251L360.138 191.449C366.736 182.89 372.946 179 386.53 179C404.383 179 418.355 186.392 418.355 203.121V473.493Z" fill="white"/>
<path d="M457.355 172.806C457.355 156.897 470.323 143.78 486.055 146.146C510.972 149.893 535.01 158.498 556.767 171.572C586.789 189.614 611.335 215.484 627.775 246.412C644.215 277.339 651.928 312.157 650.089 347.134C648.25 382.112 636.927 415.929 617.335 444.961C597.742 473.994 570.618 497.148 538.87 511.941C507.122 526.734 471.947 532.609 437.114 528.936C402.282 525.262 369.106 512.179 341.142 491.089C320.877 475.805 303.902 456.733 291.104 435.027C283.023 421.323 290.335 404.39 305.088 398.437C319.842 392.485 336.396 399.866 345.33 413.029C353.634 425.264 363.923 436.111 375.832 445.093C395.449 459.888 418.722 469.065 443.156 471.642C467.591 474.219 492.266 470.098 514.538 459.721C536.809 449.343 555.836 433.101 569.58 412.735C583.325 392.368 591.267 368.646 592.558 344.109C593.848 319.573 588.437 295.148 576.904 273.453C565.372 251.757 548.153 233.609 527.093 220.953C514.307 213.27 500.398 207.786 485.945 204.664C470.394 201.305 457.355 188.714 457.355 172.806Z" fill="url(#paint1_linear_2718_4783)"/>
<defs>
<linearGradient id="paint0_linear_2718_4783" x1="457.355" y1="144" x2="457.355" y2="530" gradientUnits="userSpaceOnUse">
<stop stop-color="#20393C"/>
<stop offset="1" stop-color="#26828C"/>
</linearGradient>
<linearGradient id="paint1_linear_2718_4783" x1="457.355" y1="144" x2="457.355" y2="530" gradientUnits="userSpaceOnUse">
<stop stop-color="#20393C"/>
<stop offset="1" stop-color="#26828C"/>
</linearGradient>
</defs>
</svg>
